<?xml version="1.0" encoding="utf-8"?>
<!-- Generator: Adobe Illustrator 24.3.0, SVG Export Plug-In . SVG Version: 6.00 Build 0)  -->
<svg version="1.1" id="Layer_1" xmlns="http://www.w3.org/2000/svg" xmlns:xlink="http://www.w3.org/1999/xlink" x="0px" y="0px"
	 viewBox="0 0 24 24" style="enable-background:new 0 0 24 24;" xml:space="preserve">
<path d="M16.1,11.3c1.1-0.7,1.8-2,1.8-3.3c0-2.2-1.8-4-4-4c-2.2,0-4,1.8-4,4c0,1.3,0.7,2.6,1.8,3.3c-0.6,0.3-1.2,0.6-1.8,1.1
	c-0.3-0.3-0.6-0.5-1-0.7c0.6-0.6,1-1.4,1-2.3c0-1.8-1.4-3.2-3.2-3.2c-1.8,0-3.2,1.4-3.2,3.2c0,0.9,0.4,1.7,1,2.3
	c-1.5,0.8-2.5,2.4-2.5,4.2c0,0.6,0.5,1.1,1.1,1.1h4.7c0,0.6,0.5,1.1,1.1,1.1h6.5l-0.3-0.2c-0.3-0.2-0.5-0.6-0.7-1l0-0.1H9.1
	c0-0.3,0.1-0.7,0.1-1c0.1-0.6,0.4-1.1,0.7-1.6c0.2-0.3,0.4-0.6,0.7-0.8c0.9-0.8,2.1-1.3,3.3-1.3c1.1,0,2.1,0.4,3,1l0.1,0.1l0.1-0.1
	c0.1-0.2,0.2-0.4,0.4-0.6c0.1-0.1,0.1-0.1,0.2-0.2l0.1-0.1l-0.1-0.1C17.2,11.8,16.6,11.5,16.1,11.3z M16.6,7.9
	c0,1.5-1.2,2.7-2.7,2.7c-1.5,0-2.7-1.2-2.7-2.7c0-1.5,1.2-2.7,2.7-2.7C15.4,5.2,16.6,6.4,16.6,7.9z M6.6,11.3c-1.1,0-2-0.9-2-2
	c0-1.1,0.9-2,2-2c1.1,0,2,0.9,2,2C8.6,10.4,7.7,11.3,6.6,11.3z M9,13.3c-0.5,0.7-0.9,1.5-1.1,2.4H3.2c0.1-1.8,1.6-3.3,3.4-3.3
	C7.5,12.4,8.4,12.7,9,13.3z"/>
<path d="M21.2,15.6l-1.7,0l0-1.7c0-0.4-0.3-0.7-0.7-0.7c-0.2,0-0.4,0.1-0.5,0.2c-0.1,0.1-0.2,0.3-0.2,0.5l0,1.7l-1.7,0
	c-0.2,0-0.4,0.1-0.5,0.2c-0.1,0.1-0.2,0.3-0.2,0.5c0,0.4,0.3,0.7,0.7,0.7l1.7,0l0,1.7c0,0.4,0.3,0.7,0.7,0.7h0
	c0.2,0,0.4-0.1,0.5-0.2c0.1-0.1,0.2-0.3,0.2-0.5l0-1.7l1.7,0c0.2,0,0.4-0.1,0.5-0.2c0.1-0.1,0.2-0.3,0.2-0.5
	C21.9,16,21.6,15.7,21.2,15.6z"/>
</svg>
