<?xml version="1.0" encoding="UTF-8"?>
<svg width="24px" height="24px" viewBox="0 0 24 24" version="1.1" xmlns="http://www.w3.org/2000/svg" xmlns:xlink="http://www.w3.org/1999/xlink">
    <title>Add people</title>
    <g id="Icones_Outline" stroke="none" stroke-width="1" fill="none" fill-rule="evenodd">
        <g id="Add-people" fill="#000000" fill-rule="nonzero" stroke="#000000" stroke-width="0.5">
            <g id="noun_Add-Contact_339144" transform="translate(2.000000, 4.000000)">
                <path d="M19.0932653,11.5957143 L17.4367347,11.5879592 L17.427551,9.87755102 C17.4261224,9.48693878 17.11,9.16836735 16.7206122,9.16693878 C16.5338776,9.16693878 16.3585714,9.23979592 16.2263265,9.37367347 C16.0926531,9.5077551 16.02,9.68632653 16.0204082,9.87857143 L16.0285714,11.5810204 L14.3228571,11.5726531 C14.1320408,11.5726531 13.9532653,11.6469388 13.8197959,11.7810204 C13.6871429,11.9138776 13.614898,12.0893878 13.6159077,12.2773469 C13.6181633,12.6630612 13.9369388,12.9779592 14.3257143,12.9795918 L16.0357143,12.9883673 L16.0436735,14.6463265 C16.0463265,15.0355102 16.3616327,15.3540816 16.747551,15.3563265 L16.7506122,15.3563265 C16.9377551,15.3563265 17.1132653,15.2834694 17.245102,15.1504082 C17.3785714,15.0163265 17.452449,14.8369388 17.4508163,14.6455102 L17.4434694,12.9957143 L19.0963265,13.0036735 C19.287551,13.0036735 19.4659184,12.9297959 19.5995918,12.794898 C19.7316327,12.6626531 19.8042857,12.4861224 19.8030765,12.2995918 C19.8006122,11.9134694 19.4818367,11.5979592 19.0932653,11.5957143 Z M12.3804082,12.862449 L6.96530612,12.862449 C6.96530612,12.824898 6.96734694,12.7871429 6.9677551,12.7497959 C6.97612245,12.4061224 7.01918367,12.0712245 7.0944898,11.7493878 C7.23510204,11.1473469 7.48653061,10.5889796 7.82693878,10.0965306 C8.02795918,9.80571429 8.25938776,9.53836735 8.51632653,9.29816327 C9.38632653,8.48755102 10.5534694,7.99040816 11.8363265,7.99040816 C12.9840816,7.99040816 14.0373469,8.38795918 14.8693878,9.05020408 C14.9695918,8.82530612 15.1091837,8.61836735 15.2869388,8.43877551 C15.3493878,8.37632653 15.4153061,8.32020408 15.4834694,8.26734694 C14.9695918,7.85816327 14.3885714,7.53102041 13.7569388,7.31122449 C14.9016327,6.64734694 15.6736735,5.40714286 15.6736735,3.99081633 C15.6736735,1.87469388 13.9522449,0.154081633 11.8363265,0.154081633 C9.72142857,0.154081633 8.00102041,1.87489796 8.00102041,3.99081633 C8.00102041,5.40714286 8.77244898,6.64734694 9.91714286,7.31122449 C9.15612245,7.5755102 8.46836735,7.9944898 7.88489796,8.52714286 C7.53285714,8.18122449 7.12693878,7.89081633 6.67734694,7.67387755 C7.34469388,7.11428571 7.76959184,6.2744898 7.76959184,5.3377551 C7.76959184,3.65489796 6.40061224,2.28693878 4.71877551,2.28693878 C3.03693878,2.28693878 1.66918367,3.65530612 1.66918367,5.33816327 C1.66918367,6.2744898 2.09346939,7.1144898 2.76040816,7.67428571 C1.24530612,8.40571429 0.197142857,9.95755102 0.197142857,11.7495918 C0.197142857,12.3022449 0.645714286,12.75 1.1977551,12.75 L5.96897959,12.75 C5.96836735,12.7873469 5.9644898,12.8246939 5.9644898,12.8626531 C5.9644898,13.414898 6.41265306,13.8626531 6.96510204,13.8626531 L13.0661224,13.8626531 C12.7457143,13.6089796 12.502449,13.2618367 12.3804082,12.862449 Z M9.00122449,3.99122449 C9.00122449,2.4244898 10.2710204,1.15489796 11.8371429,1.15489796 C13.4036735,1.15489796 14.6732653,2.42489796 14.6732653,3.99122449 C14.6732653,5.5577551 13.4034694,6.82693878 11.8371429,6.82693878 C10.2710204,6.82693878 9.00122449,5.55755102 9.00122449,3.99122449 Z M2.66897959,5.33816327 C2.66897959,4.20571429 3.58673469,3.28816327 4.71857143,3.28816327 C5.85061224,3.28816327 6.76816327,4.20571429 6.76816327,5.33816327 C6.76816327,6.46938776 5.85081633,7.38755102 4.71857143,7.38755102 C3.58673469,7.38734694 2.66897959,6.46938776 2.66897959,5.33816327 Z M1.19795918,11.7493878 C1.19795918,9.80510204 2.77428571,8.2277551 4.71857143,8.2277551 C5.69102041,8.2277551 6.57102041,8.62244898 7.20836735,9.25877551 C6.64938776,9.97612245 6.25285714,10.8234694 6.07489796,11.7493878 L1.19795918,11.7493878 L1.19795918,11.7493878 Z" id="Shape"></path>
            </g>
        </g>
    </g>
</svg>