<?xml version="1.0" encoding="utf-8"?>
<!-- Generator: Adobe Illustrator 24.3.0, SVG Export Plug-In . SVG Version: 6.00 Build 0)  -->
<svg version="1.1" id="Layer_1" xmlns="http://www.w3.org/2000/svg" xmlns:xlink="http://www.w3.org/1999/xlink" x="0px" y="0px"
	 viewBox="0 0 24 24" style="enable-background:new 0 0 24 24;" xml:space="preserve">
<style type="text/css">
	.st0{clip-path:url(#SVGID_4_);}
	.st1{clip-path:url(#SVGID_6_);}
</style>
<g>
	<g>
		<g id="SVGID_2_">
			<path d="M8.9,19.5l-6.5-5.3c-0.4-0.4-0.5-1-0.1-1.4c0.4-0.4,1-0.5,1.4-0.1l5,4.1c1.4-1.4,2.8-2.9,4.2-4.3c2.4-2.6,5-5.2,7.4-7.7
				c0.4-0.4,1.1-0.4,1.5,0c0.4,0.4,0.4,1.1,0,1.5c-2.4,2.4-4.9,5.1-7.4,7.6c-1.6,1.7-3.2,3.4-4.8,5L8.9,19.5z"/>
		</g>
	</g>
	<g>
		<defs>
			<path id="SVGID_1_" d="M8.9,19.5l-6.5-5.3c-0.4-0.4-0.5-1-0.1-1.4c0.4-0.4,1-0.5,1.4-0.1l5,4.1c1.4-1.4,2.8-2.9,4.2-4.3
				c2.4-2.6,5-5.2,7.4-7.7c0.4-0.4,1.1-0.4,1.5,0c0.4,0.4,0.4,1.1,0,1.5c-2.4,2.4-4.9,5.1-7.4,7.6c-1.6,1.7-3.2,3.4-4.8,5L8.9,19.5z
				"/>
		</defs>
		<use xlink:href="#SVGID_1_"  style="overflow:visible;"/>
		<clipPath id="SVGID_4_">
			<use xlink:href="#SVGID_1_"  style="overflow:visible;"/>
		</clipPath>
		<g class="st0">
			<g>
				<g id="SVGID_3_">
					<path d="M457.6,382.9h-1483.6V-644.1H457.6V382.9z M-1024,380.9H455.5v-1023H-1024V380.9z"/>
				</g>
			</g>
			<g>
				<defs>
					<path id="SVGID_5_" d="M457.6,382.9h-1483.6V-644.1H457.6V382.9z M-1024,380.9H455.5v-1023H-1024V380.9z"/>
				</defs>
				<use xlink:href="#SVGID_5_"  style="overflow:visible;"/>
				<clipPath id="SVGID_6_">
					<use xlink:href="#SVGID_5_"  style="overflow:visible;"/>
				</clipPath>
				<g class="st1">
					<path d="M31.4,29.4H-7.1v-32h38.5V29.4z M-5.1,27.3h34.4V-0.5H-5.1V27.3z"/>
				</g>
			</g>
		</g>
	</g>
</g>
</svg>
