<?xml version="1.0" encoding="UTF-8"?>
<svg width="24px" height="24px" viewBox="0 0 24 24" version="1.1" xmlns="http://www.w3.org/2000/svg" xmlns:xlink="http://www.w3.org/1999/xlink">
    <title>Reduce Screen</title>
    <g id="Icones" stroke="none" stroke-width="1" fill="none" fill-rule="evenodd">
        <g id="Reduce-Screen" fill="#000000" fill-rule="nonzero">
            <g id="noun_Full-Screen_533148" transform="translate(2.000000, 3.000000)">
                <path d="M9.76706827,8.26104418 L9.76706827,2.03212851 C9.76706827,1.54618474 10.1646586,1.14859438 10.6506024,1.14859438 C11.1365462,1.14859438 11.5341365,1.54618474 11.5341365,2.03212851 L11.5341365,6.14056225 L17.5421687,0.265060241 C17.7188755,0.0883534137 17.939759,0 18.1606426,0 C18.3815261,0 18.6024096,0.0883534137 18.7791165,0.265060241 C19.1325301,0.618473896 19.1325301,1.19277108 18.7791165,1.50200803 L12.815261,7.37751004 L16.8795181,7.37751004 C17.3654618,7.37751004 17.7630522,7.7751004 17.7630522,8.26104418 C17.7630522,8.74698795 17.3654618,9.14457831 16.8795181,9.14457831 L10.6506024,9.14457831 C10.5180723,9.14457831 10.4297189,9.10040161 10.2971888,9.0562249 L10.253012,9.0562249 C10.2088353,9.01204819 10.1646586,9.01204819 10.0763052,8.96787149 L9.98795181,8.87951807 L9.9437751,8.83534137 C9.9437751,8.79116466 9.89959839,8.79116466 9.89959839,8.74698795 C9.89959839,8.70281124 9.85542169,8.70281124 9.85542169,8.65863454 C9.85542169,8.61445783 9.81124498,8.61445783 9.81124498,8.57028112 C9.81124498,8.52610442 9.81124498,8.52610442 9.76706827,8.48192771 C9.76706827,8.437751 9.76706827,8.437751 9.72289157,8.3935743 L9.72289157,8.26104418 C9.76706827,8.30522088 9.76706827,8.26104418 9.76706827,8.26104418 L9.76706827,8.26104418 Z M0.265060241,18.6024096 C0.441767068,18.7791165 0.662650602,18.8674699 0.883534137,18.8674699 C1.10441767,18.8674699 1.3253012,18.7791165 1.50200803,18.6024096 L7.68674699,12.5502008 L7.68674699,16.7028112 C7.68674699,17.188755 8.08433735,17.5863454 8.57028112,17.5863454 C9.0562249,17.5863454 9.45381526,17.188755 9.45381526,16.7028112 L9.45381526,10.2971888 C9.45381526,10.253012 9.45381526,10.253012 9.40963855,10.2088353 C9.40963855,10.1646586 9.40963855,10.1646586 9.36546185,10.1204819 C9.36546185,10.0763052 9.32128514,10.0763052 9.32128514,10.0321285 C9.32128514,9.98795181 9.27710843,9.98795181 9.27710843,9.9437751 C9.27710843,9.89959839 9.23293173,9.89959839 9.23293173,9.85542169 L9.18875502,9.81124498 L9.10040161,9.72289157 C9.0562249,9.67871486 9.01204819,9.63453815 8.92369478,9.63453815 L8.87951807,9.63453815 C8.79116466,9.59036145 8.65863454,9.54618474 8.52610442,9.54618474 L2.29718876,9.54618474 C1.81124498,9.54618474 1.41365462,9.9437751 1.41365462,10.4297189 C1.41365462,10.9156627 1.81124498,11.313253 2.29718876,11.313253 L6.40562249,11.313253 L0.265060241,17.3212851 C-0.0883534137,17.6746988 -0.0883534137,18.248996 0.265060241,18.6024096 L0.265060241,18.6024096 Z" id="Shape"></path>
            </g>
        </g>
    </g>
</svg>