<?xml version="1.0" encoding="utf-8"?>
<!-- Generator: Adobe Illustrator 24.3.0, SVG Export Plug-In . SVG Version: 6.00 Build 0)  -->
<svg version="1.1" id="Layer_1" xmlns="http://www.w3.org/2000/svg" xmlns:xlink="http://www.w3.org/1999/xlink" x="0px" y="0px"
	 viewBox="0 0 24 24" style="enable-background:new 0 0 24 24;" xml:space="preserve">
<path d="M13.3,12.4l2.1-2.1c0.3-0.3,0.3-0.8,0-1.1c-0.3-0.3-0.8-0.3-1.1,0l-2.1,2.1l-2.1-2.1C9.8,8.9,9.3,8.9,9,9.2
	C8.9,9.3,8.8,9.5,8.8,9.7c0,0.2,0.1,0.4,0.2,0.6l2.1,2.1L9,14.5c-0.2,0.1-0.2,0.3-0.2,0.5c0,0.2,0.1,0.4,0.2,0.6
	c0.3,0.3,0.8,0.3,1.1,0l2.1-2.1l2.1,2.1c0.1,0.1,0.3,0.2,0.5,0.2c0.2,0,0.4-0.1,0.5-0.2c0.3-0.3,0.3-0.8,0-1.1L13.3,12.4z"/>
</svg>
