<?xml version="1.0" encoding="UTF-8"?>
<svg width="24px" height="24px" viewBox="0 0 24 24" version="1.1" xmlns="http://www.w3.org/2000/svg" xmlns:xlink="http://www.w3.org/1999/xlink">
    <title>Garbage</title>
    <g id="Icones_Outline" stroke="none" stroke-width="1" fill="none" fill-rule="evenodd">
        <g id="Garbage" fill="#000000" fill-rule="nonzero" stroke="#000000" stroke-width="0.75">
            <g id="noun_Garbage_2034095" transform="translate(2.000000, 2.000000)">
                <path d="M18.5416667,2.66666667 L12.4791667,2.66666667 L12.4791667,2.1875 C12.4791667,1.04166667 11.5416667,0.104166667 10.3958333,0.104166667 L8.77083333,0.104166667 C7.625,0.104166667 6.6875,1.04166667 6.6875,2.1875 L6.6875,2.66666667 L0.625,2.66666667 C0.333333333,2.66666667 0.0833333333,2.91666667 0.0833333333,3.20833333 C0.0833333333,3.5 0.333333333,3.75 0.625,3.75 L2.14583333,3.75 L2.85416667,17.7291667 C2.91666667,18.9375 3.91666667,19.8958333 5.14583333,19.8958333 L14.0625,19.8958333 C15.2708333,19.8958333 16.2916667,18.9375 16.3541667,17.7291667 L17.0208333,3.75 L18.5416667,3.75 C18.8333333,3.75 19.0833333,3.5 19.0833333,3.20833333 C19.0833333,2.91666667 18.8333333,2.66666667 18.5416667,2.66666667 Z M7.77083333,2.1875 C7.77083333,1.64583333 8.20833333,1.1875 8.77083333,1.1875 L10.3958333,1.1875 C10.9375,1.1875 11.3958333,1.625 11.3958333,2.1875 L11.3958333,2.66666667 L7.77083333,2.66666667 L7.77083333,2.1875 Z M15.2291667,17.6666667 C15.1875,18.3125 14.6666667,18.7916667 14.0416667,18.7916667 L5.125,18.7916667 C4.47916667,18.7916667 3.95833333,18.2916667 3.9375,17.6666667 L3.22916667,3.75 L15.9166667,3.75 L15.2291667,17.6666667 Z" id="Shape"></path>
            </g>
        </g>
    </g>
</svg>