<?xml version="1.0" encoding="utf-8"?>
<!-- Generator: Adobe Illustrator 24.3.0, SVG Export Plug-In . SVG Version: 6.00 Build 0)  -->
<svg version="1.1" id="Layer_1" xmlns="http://www.w3.org/2000/svg" xmlns:xlink="http://www.w3.org/1999/xlink" x="0px" y="0px"
	 viewBox="0 0 24 24" style="enable-background:new 0 0 24 24;" xml:space="preserve">
<g>
	<g>
		<path d="M12,2.1c-5.4,0-9.9,4.4-9.9,9.9s4.4,9.9,9.9,9.9s9.9-4.4,9.9-9.9S17.4,2.1,12,2.1z M12,20.7c-4.8,0-8.7-3.9-8.7-8.7
			S7.2,3.3,12,3.3s8.7,3.9,8.7,8.7S16.8,20.7,12,20.7z"/>
	</g>
	<g>
		<path d="M7.4,13.3c-0.2,0-0.4,0.1-0.5,0.2c-0.1,0.1-0.1,0.3-0.1,0.5c0,0.1,0.1,0.3,0.2,0.4c1.4,1,3.1,1.5,4.9,1.5s3.4-0.5,4.9-1.5
			c0.1-0.1,0.2-0.2,0.3-0.4c0-0.2,0-0.3-0.1-0.4c-0.2-0.3-0.5-0.3-0.8-0.1c-1.2,0.8-2.7,1.3-4.2,1.3s-3-0.4-4.2-1.3
			C7.7,13.3,7.5,13.3,7.4,13.3z"/>
	</g>
	<g>
		<path d="M8,8.9c-0.4,0-0.8,0.3-0.8,0.8c0,0.4,0.3,0.8,0.8,0.8s0.8-0.3,0.8-0.8C8.8,9.2,8.5,8.9,8,8.9z"/>
	</g>
	<g>
		<path d="M16,8.9c-0.4,0-0.8,0.4-0.8,0.8c0,0.5,0.3,0.8,0.8,0.8c0.4,0,0.8-0.3,0.8-0.8C16.8,9.2,16.4,8.9,16,8.9z"/>
	</g>
</g>
</svg>
