<?xml version="1.0" encoding="utf-8"?>
<!-- Generator: Adobe Illustrator 24.3.0, SVG Export Plug-In . SVG Version: 6.00 Build 0)  -->
<svg version="1.1" id="Layer_1" xmlns="http://www.w3.org/2000/svg" xmlns:xlink="http://www.w3.org/1999/xlink" x="0px" y="0px"
	 viewBox="0 0 24 24" style="enable-background:new 0 0 24 24;" xml:space="preserve">
<g>
	<path d="M12,15.1c1.7,0,3.1-1.4,3.1-3.1c0-1.7-1.4-3.1-3.1-3.1S8.9,10.3,8.9,12C8.9,13.7,10.3,15.1,12,15.1z M10.1,12
		c0-1,0.8-1.9,1.9-1.9s1.9,0.8,1.9,1.9c0,1-0.8,1.9-1.9,1.9S10.1,13,10.1,12z"/>
	<path d="M21.1,14.6l-1.2-1.1C20,13,20,12.5,20,12c0-0.5,0-1-0.1-1.5l1.2-1.1C21.4,9,21.5,8.5,21.3,8L20.1,6
		c-0.3-0.4-0.8-0.7-1.3-0.5l-1.6,0.5c-0.7-0.6-1.6-1.1-2.5-1.5l-0.4-1.6C14.2,2.3,13.7,2,13.2,2c0,0,0,0,0,0h-2.4c0,0,0,0,0,0
		c-0.5,0-0.9,0.3-1.1,0.8L9.3,4.4C8.4,4.8,7.5,5.3,6.8,5.9L5.2,5.4C4.7,5.3,4.2,5.5,3.9,6L2.7,8C2.5,8.5,2.6,9,2.9,9.4l1.2,1.1
		c-0.2,1-0.2,1.9,0,2.9l-1.2,1.1C2.6,15,2.5,15.5,2.7,16L3.9,18c0.3,0.4,0.8,0.7,1.3,0.5l1.6-0.5c0.7,0.6,1.6,1.1,2.5,1.5l0.4,1.6
		c0.1,0.5,0.6,0.8,1.1,0.8c0,0,0,0,0,0h2.4c0,0,0,0,0,0c0.5,0,0.9-0.3,1.1-0.8l0.4-1.6c0.9-0.3,1.8-0.8,2.5-1.5l1.6,0.5
		c0.5,0.1,1-0.1,1.3-0.5l1.2-2.1C21.5,15.5,21.4,15,21.1,14.6z M4,15.5L5.5,14l0-0.1c-0.4-1.3-0.4-2.6,0-3.9l0-0.1L4,8.5
		c0,0,0-0.1,0-0.1l0.8-1.4c0,0,0.1-0.1,0.1-0.1L7,7.4l0.1-0.1c0.9-1,2.1-1.6,3.4-1.9l0.1,0l0.6-2c0-0.1,0.1-0.1,0.1-0.1h1.6
		c0,0,0,0,0,0c0.1,0,0.1,0,0.1,0.1l0.6,2l0.1,0c1.3,0.3,2.5,1,3.4,1.9L17,7.4l2.1-0.5c0.1,0,0.1,0,0.1,0.1L20,8.3c0,0,0,0.1,0,0.1
		l-1.4,1.5L18.5,10l0,0.1c0.4,1.3,0.4,2.6,0,3.9l0,0.1l1.5,1.5c0,0,0,0.1,0,0.1l-0.8,1.4c0,0-0.1,0.1-0.1,0.1L17,16.6L17,16.7
		c-0.9,1-2.1,1.6-3.4,1.9l-0.1,0l-0.6,2c0,0.1-0.1,0.1-0.1,0.1h-1.6c-0.1,0-0.1,0-0.1-0.1l-0.6-2l-0.1,0c-1.3-0.3-2.5-1-3.4-1.9
		L7,16.6l-2.1,0.5c-0.1,0-0.1,0-0.1-0.1L4,15.7C4,15.6,4,15.6,4,15.5z"/>
</g>
</svg>
