<?xml version="1.0" encoding="UTF-8"?>
<svg width="24px" height="24px" viewBox="0 0 24 24" version="1.1" xmlns="http://www.w3.org/2000/svg" xmlns:xlink="http://www.w3.org/1999/xlink">
    <title>BLOCK</title>
    <g id="Icones_Outline" stroke="none" stroke-width="1" fill="none" fill-rule="evenodd">
        <g id="Group" stroke="#000000" transform="translate(2.000000, 2.000000)">
            <g id="Ico_PROFIL" transform="translate(4.000000, 3.000000)" stroke-width="1.75">
                <path d="M9,3 C9,4.65681539 7.65681539,6 6,6 C4.34318461,6 3,4.65681539 3,3 C3,1.3431846 4.34318461,0 6,0 C7.65681539,0 9,1.3431846 9,3 Z" id="Stroke-1"></path>
                <path d="M0,14 C0,10.1340213 2.68631843,7 6.00003624,7 C9.31368157,7 12,10.1340213 12,14" id="Stroke-3"></path>
            </g>
            <path d="M10,0 C4.4771525,0 0,4.4771525 0,10 C0,15.5228475 4.4771525,20 10,20 C15.5228475,20 20,15.5228475 20,10 C20,4.4771525 15.5228475,0 10,0 Z M10,1.33333168 C12.0746076,1.33204969 14.079864,2.08017366 15.6466667,3.44 L3.39333333,15.5933333 C1.21771658,13.0183471 0.73262388,9.41543918 2.14972463,6.35673232 C3.56682538,3.29802546 6.62897124,1.33855529 10,1.33333168 L10,1.33333168 Z M10,18.6666667 C7.91614814,18.6660287 5.90307168,17.9105329 4.33333333,16.54 L16.5866667,4.38 C18.7770629,6.95136307 19.2739172,10.5610635 17.8596803,13.6285834 C16.4454435,16.6961032 13.3778286,18.6624553 10,18.6666667 Z" id="Shape" stroke-width="0.5" fill="#000000" fill-rule="nonzero"></path>
        </g>
    </g>
</svg>