<?xml version="1.0" encoding="UTF-8"?>
<svg width="24px" height="24px" viewBox="0 0 24 24" version="1.1" xmlns="http://www.w3.org/2000/svg" xmlns:xlink="http://www.w3.org/1999/xlink">
    <title>Search</title>
    <defs>
        <polygon id="path-1" points="0 0 20.8695652 0 20.8695652 20 0 20"></polygon>
    </defs>
    <g id="Icones" stroke="none" stroke-width="1" fill="none" fill-rule="evenodd">
        <g id="SEARCH" transform="translate(2.000000, 2.000000)">
            <mask id="mask-2" fill="white">
                <use xlink:href="#path-1"></use>
            </mask>
            <g id="Clip-2"></g>
            <path d="M16.332254,14.1476905 C19.4399207,10.3382369 18.7369961,4.83588502 14.7625652,1.85818234 C10.7881343,-1.11952035 5.04670234,-0.446856966 1.9390356,3.36259658 C-1.16863113,7.17205014 -0.465706514,12.674402 3.50872441,15.6521047 C6.81546504,18.1300652 11.4558246,18.1300652 14.7625652,15.6521047 L18.9713043,19.6846266 C19.4029247,20.1030958 20.1058493,20.104825 20.5409931,19.6915434 C20.9761369,19.2782618 20.9796604,18.6038692 20.54804,18.1871292 C20.5445166,18.1854 20.5427548,18.1836708 20.5409931,18.1802123 L16.332254,14.1476905 Z M9.15150024,15.3823477 C5.34090889,15.3823477 2.25085931,12.4219371 2.25085931,8.76984182 C2.25085931,5.11774654 5.33914717,2.15733597 9.15150024,2.15733597 C12.9620916,2.15733597 16.0503795,5.11774654 16.0503795,8.76984182 L16.0503795,8.76984182 C16.046856,12.4202079 12.9603299,15.3788892 9.15150024,15.3823477 L9.15150024,15.3823477 Z" id="Fill-1" fill="#000000" mask="url(#mask-2)"></path>
        </g>
    </g>
</svg>