<?xml version="1.0" encoding="UTF-8"?>
<svg width="24px" height="24px" viewBox="0 0 24 24" version="1.1" xmlns="http://www.w3.org/2000/svg" xmlns:xlink="http://www.w3.org/1999/xlink">
    <title>Document</title>
    <g id="Icones_Outline" stroke="none" stroke-width="1" fill="none" fill-rule="evenodd">
        <g id="Document" fill="#000000" fill-rule="nonzero" stroke="#000000" stroke-width="0.75">
            <path d="M19.937931,8.09195402 L17.3333333,5.48735632 L17.3333333,3.40229885 C17.3333333,2.62988506 16.7034483,2 15.9310345,2 L5.40229885,2 C4.62988506,2 4,2.62988506 4,3.40229885 L4,18.0689655 C4,18.8413793 4.62988506,19.4712644 5.40229885,19.4712644 L6.52873563,19.4712644 L6.52873563,20.691954 C6.52873563,21.4137931 7.11494253,22 7.83678161,22 L19.0137931,22 C19.7356322,22 20.3218391,21.4137931 20.3218391,20.691954 L20.3218391,9.0183908 C20.3218391,8.66896552 20.1862069,8.34022989 19.937931,8.09195402 Z M18.7517241,8.20689655 L16.5724138,8.20689655 C16.3586207,8.20689655 16.183908,8.03218391 16.183908,7.8183908 L16.183908,5.63908046 L16.4137931,5.86896552 L16.4137931,5.86896552 L16.4137931,5.86896552 L18.7517241,8.20689655 Z M6.52873563,5.37701149 L6.52873563,18.5517241 L5.40229885,18.5517241 C5.13563218,18.5517241 4.91954023,18.3356322 4.91954023,18.0689655 L4.91954023,3.40229885 C4.91954023,3.13563218 5.13563218,2.91954023 5.40229885,2.91954023 L15.9310345,2.91954023 C16.1977011,2.91954023 16.4137931,3.13563218 16.4137931,3.40229885 L16.4137931,4.56781609 L16.2988506,4.45287356 C16.0505747,4.2045977 15.7241379,4.06896552 15.3747126,4.06896552 L7.83678161,4.06896552 C7.11494253,4.06896552 6.52873563,4.65517241 6.52873563,5.37701149 Z M19.4022989,20.691954 C19.4022989,20.9057471 19.2275862,21.0804598 19.0137931,21.0804598 L7.83678161,21.0804598 C7.62298851,21.0804598 7.44827586,20.9057471 7.44827586,20.691954 L7.44827586,5.37701149 C7.44827586,5.16321839 7.62298851,4.98850575 7.83678161,4.98850575 L15.2643678,4.98850575 L15.2643678,7.8183908 C15.2643678,8.54022989 15.8505747,9.12643678 16.5724138,9.12643678 L19.4022989,9.12643678 L19.4022989,20.691954 Z" id="Shape"></path>
        </g>
    </g>
</svg>