<?xml version="1.0" encoding="utf-8"?>
<!-- Generator: Adobe Illustrator 24.3.0, SVG Export Plug-In . SVG Version: 6.00 Build 0)  -->
<svg version="1.1" id="Layer_1" xmlns="http://www.w3.org/2000/svg" xmlns:xlink="http://www.w3.org/1999/xlink" x="0px" y="0px"
	 viewBox="0 0 24 24" style="enable-background:new 0 0 24 24;" xml:space="preserve">
<path d="M16,5.6c-0.4,0-0.7,0.4-0.7,0.7v11.1c0,1.8-1.5,3.3-3.3,3.3s-3.3-1.5-3.3-3.3V5.6c0-1.2,1-2.1,2.1-2.1C12,3.4,13,4.4,13,5.6
	V16c0,0.5-0.4,0.9-0.9,0.9c-0.4,0-0.9-0.4-0.9-0.9V6.8c0-0.4-0.4-0.7-0.7-0.7c-0.4,0-0.7,0.3-0.7,0.7V16c0,1.2,1.1,2.3,2.3,2.3
	s2.3-1.1,2.3-2.3V5.6c0-1.9-1.6-3.6-3.6-3.6S7.2,3.6,7.2,5.6v11.7c0,2.6,2.1,4.8,4.8,4.8s4.8-2.1,4.8-4.8v-11
	C16.8,5.8,16.4,5.6,16,5.6z"/>
</svg>
