<?xml version="1.0" encoding="utf-8"?>
<!-- Generator: Adobe Illustrator 24.3.0, SVG Export Plug-In . SVG Version: 6.00 Build 0)  -->
<svg version="1.1" id="Layer_1" xmlns="http://www.w3.org/2000/svg" xmlns:xlink="http://www.w3.org/1999/xlink" x="0px" y="0px"
	 viewBox="0 0 24 24" style="enable-background:new 0 0 24 24;" xml:space="preserve">
<g>
	<path d="M20.5,3.6H3.5c-1,0-1.9,0.8-1.9,1.9v11.3c0,1,0.8,1.9,1.9,1.9h7.8v0.6H7c-0.4,0-0.6,0.3-0.6,0.6s0.3,0.6,0.6,0.6H17
		c0.4,0,0.6-0.3,0.6-0.6s-0.3-0.6-0.6-0.6h-4.4v-0.6h7.8c1,0,1.9-0.8,1.9-1.9V5.4C22.3,4.4,21.5,3.6,20.5,3.6z M3,5.4
		c0-0.3,0.3-0.6,0.6-0.6h16.9c0.3,0,0.6,0.3,0.6,0.6v11.3c0,0.3-0.3,0.6-0.6,0.6H3.5C3.2,17.3,3,17,3,16.7V5.4z"/>
	<path d="M9.7,15.4c0.3,0,0.5-0.1,0.8-0.2l4.7-2.7c0.7-0.4,1-1.4,0.6-2.1c-0.1-0.2-0.3-0.4-0.6-0.6l-4.7-2.7C9.7,6.7,8.8,7,8.4,7.7
		C8.2,7.9,8.2,8.2,8.2,8.5v5.4c0,0.4,0.2,0.8,0.4,1.1C8.9,15.3,9.3,15.4,9.7,15.4z M9.7,8.2c0,0,0.1,0,0.1,0l4.7,2.7
		c0.1,0.1,0.2,0.2,0.1,0.3c0,0-0.1,0.1-0.1,0.1l-4.7,2.7c-0.1,0-0.1,0-0.2,0c-0.1,0-0.1-0.1-0.1-0.1c0,0,0-0.1,0-0.1V8.5
		C9.5,8.3,9.6,8.2,9.7,8.2z"/>
</g>
</svg>
