<?xml version="1.0" encoding="UTF-8"?>
<svg width="24px" height="24px" viewBox="0 0 24 24" version="1.1" xmlns="http://www.w3.org/2000/svg" xmlns:xlink="http://www.w3.org/1999/xlink">
    <title>Message audio</title>
    <g id="Icones_Outline" stroke="none" stroke-width="1" fill="none" fill-rule="evenodd">
        <g id="Message-audio" stroke="#000000">
            <path d="M12,2.65 C14.5819312,2.65 16.9194312,3.6965344 18.6114484,5.3885516 C20.3034656,7.08056879 21.35,9.41806879 21.35,12 L21.35,12 L21.35,21.35 L12,21.35 C9.41806879,21.35 7.08056879,20.3034656 5.3885516,18.6114484 C3.6965344,16.9194312 2.65,14.5819312 2.65,12 C2.65,9.41806879 3.6965344,7.08056879 5.3885516,5.3885516 C7.08056879,3.6965344 9.41806879,2.65 12,2.65 L12,2.65 Z" id="Rectangle-Copy-3" stroke-width="1.3"></path>
            <g id="Group" transform="translate(9.000000, 7.000000)" fill-rule="nonzero">
                <path d="M3.2826376,0.549537696 C3.71065471,0.549537696 4.09848401,0.72357997 4.37936306,1.00445902 C4.66024211,1.28533807 4.83428439,1.67316737 4.83428439,2.10118448 L4.83428439,2.10118448 L4.83428439,5.11026918 C4.83428439,5.53828591 4.66024191,5.92611527 4.37936272,6.20699446 C4.09848371,6.48787347 3.71065457,6.66191596 3.2826376,6.66191596 C2.8546206,6.66191596 2.46679142,6.48787346 2.18591237,6.20699443 C1.90503317,5.92611525 1.73099067,5.5382859 1.73099067,5.11026918 L1.73099067,5.11026918 L1.73099067,2.10118448 C1.73099067,1.67316738 1.90503297,1.2853381 2.18591204,1.00445905 C2.46679112,0.723579984 2.85462046,0.549537696 3.2826376,0.549537696 Z" id="Path"></path>
                <path d="M0.277829768,3.46892297 C0.131747046,3.46666758 -0.00228293577,3.60069619 -2.6215198e-05,3.74677891 L-2.6215198e-05,5.1145366 C-2.6215198e-05,6.83681201 1.32262269,8.24623865 3.00908469,8.38435551 L3.00908469,9.35033921 L1.91487307,9.35033921 C1.76379391,9.35033921 1.64132017,9.47280884 1.64132017,9.62389211 C1.64132017,9.77497538 1.76379391,9.89744502 1.91487307,9.89744502 L4.65040212,9.89744502 C4.80148129,9.89744502 4.92395503,9.77497538 4.92395503,9.62389211 C4.92395503,9.47280884 4.80148129,9.35064011 4.65040212,9.35033921 L3.5561905,9.35033921 L3.5561905,8.38435551 C5.24265237,8.24623865 6.56529592,6.83681201 6.56529592,5.1145366 L6.56529592,3.74677891 C6.56731043,3.60225818 6.43625533,3.46933062 6.29171955,3.46933062 C6.14718377,3.46933062 6.01612321,3.60225818 6.01816665,3.74677891 L6.01816665,5.1145366 C6.01816665,6.63475216 4.80285179,7.85006565 3.2826376,7.85006565 C1.76242204,7.85006565 0.547108409,6.63475216 0.547108409,5.1145366 L0.547108409,3.74677891 C0.549351543,3.60354661 0.421062069,3.47118667 0.277829768,3.46892297 Z" id="Path" stroke-width="0.25" fill="#000000"></path>
            </g>
        </g>
    </g>
</svg>