<?xml version="1.0" encoding="UTF-8"?>
<svg width="24px" height="24px" viewBox="0 0 24 24" version="1.1" xmlns="http://www.w3.org/2000/svg" xmlns:xlink="http://www.w3.org/1999/xlink">
    <title>Message video</title>
    <g id="Icones_Outline" stroke="none" stroke-width="1" fill="none" fill-rule="evenodd">
        <g id="Message-video" stroke="#000000">
            <path d="M12,2.65 C14.5819312,2.65 16.9194312,3.6965344 18.6114484,5.3885516 C20.3034656,7.08056879 21.35,9.41806879 21.35,12 L21.35,12 L21.35,21.35 L12,21.35 C9.41806879,21.35 7.08056879,20.3034656 5.3885516,18.6114484 C3.6965344,16.9194312 2.65,14.5819312 2.65,12 C2.65,9.41806879 3.6965344,7.08056879 5.3885516,5.3885516 C7.08056879,3.6965344 9.41806879,2.65 12,2.65 L12,2.65 Z" id="Rectangle-Copy-3" stroke-width="1.3"></path>
            <g id="Ico_Camera" transform="translate(7.000000, 8.000000)">
                <path d="M6.02370359,0.5 L6.62113006,1.69485294 L8.96139706,1.69485294 L9.29779412,7.28860294 L0.836397059,7.625 L0.5,2.03125 L3.17666405,1.69485294 L3.77409052,0.5 L6.02370359,0.5 Z M5.12098322,2.625 C4.60672884,2.625 4.138625,2.83501324 3.79931912,3.17431912 C3.46001324,3.513625 3.25,3.98172884 3.25,4.49598322 C3.25,5.01019908 3.46001706,5.47829377 3.79933884,5.81759524 C4.13864185,6.15687794 4.60673809,6.36688438 5.12098322,6.36688438 C5.63523282,6.36688438 6.10330461,6.1568772 6.44258599,5.81759581 C6.78188493,5.47829688 6.99188438,5.01020285 6.99188438,4.49598322 C6.99188438,3.98172508 6.78188875,3.51362188 6.44260572,3.17431854 C6.10332147,2.83501398 5.63524207,2.625 5.12098322,2.625 Z" id="Fill-1"></path>
            </g>
        </g>
    </g>
</svg>