<?xml version="1.0" encoding="UTF-8"?>
<svg width="24px" height="24px" viewBox="0 0 24 24" version="1.1" xmlns="http://www.w3.org/2000/svg" xmlns:xlink="http://www.w3.org/1999/xlink">
    <title>Message audio</title>
    <g id="Icones_Outline" stroke="none" stroke-width="1" fill="none" fill-rule="evenodd">
        <g id="Message-audio" stroke="#000000">
            <path d="M12,2.875 C14.5197992,2.875 16.8010492,3.89635041 18.4523494,5.54765062 C20.1036496,7.19895083 21.125,9.48020083 21.125,12 L21.125,12 L21.125,21.125 L12,21.125 C9.48020083,21.125 7.19895083,20.1036496 5.54765062,18.4523494 C3.89635041,16.8010492 2.875,14.5197992 2.875,12 C2.875,9.48020083 3.89635041,7.19895083 5.54765062,5.54765062 C7.19895083,3.89635041 9.48020083,2.875 12,2.875 Z" id="Rectangle-Copy-3" stroke-width="1.75"></path>
            <g id="Group" transform="translate(9.000000, 7.000000)" fill-rule="nonzero">
                <path d="M3.2826376,0.724537696 C3.66238148,0.724537696 4.00643194,0.87901528 4.25561937,1.12820271 C4.5048068,1.37739014 4.65928439,1.7214406 4.65928439,2.10118448 L4.65928439,2.10118448 L4.65928439,5.11026918 C4.65928439,5.49001273 4.50480658,5.83406323 4.25561904,6.08325078 C4.00643165,6.33243816 3.66238135,6.48691596 3.2826376,6.48691596 C2.90289382,6.48691596 2.55884347,6.33243814 2.30965606,6.08325074 C2.0604685,5.8340632 1.90599067,5.49001272 1.90599067,5.11026918 L1.90599067,5.11026918 L1.90599067,2.10118448 C1.90599067,1.72144061 2.06046828,1.37739017 2.30965572,1.12820274 C2.55884318,0.879015295 2.90289369,0.724537696 3.2826376,0.724537696 Z" id="Path" stroke-width="1.35"></path>
                <path d="M0.277829768,3.46892297 C0.131747046,3.46666758 -0.00228293577,3.60069619 -2.6215198e-05,3.74677891 L-2.6215198e-05,5.1145366 C-2.6215198e-05,6.83681201 1.32262269,8.24623865 3.00908469,8.38435551 L3.00908469,9.35033921 L1.91487307,9.35033921 C1.76379391,9.35033921 1.64132017,9.47280884 1.64132017,9.62389211 C1.64132017,9.77497538 1.76379391,9.89744502 1.91487307,9.89744502 L4.65040212,9.89744502 C4.80148129,9.89744502 4.92395503,9.77497538 4.92395503,9.62389211 C4.92395503,9.47280884 4.80148129,9.35064011 4.65040212,9.35033921 L3.5561905,9.35033921 L3.5561905,8.38435551 C5.24265237,8.24623865 6.56529592,6.83681201 6.56529592,5.1145366 L6.56529592,3.74677891 C6.56731043,3.60225818 6.43625533,3.46933062 6.29171955,3.46933062 C6.14718377,3.46933062 6.01612321,3.60225818 6.01816665,3.74677891 L6.01816665,5.1145366 C6.01816665,6.63475216 4.80285179,7.85006565 3.2826376,7.85006565 C1.76242204,7.85006565 0.547108409,6.63475216 0.547108409,5.1145366 L0.547108409,3.74677891 C0.549351543,3.60354661 0.421062069,3.47118667 0.277829768,3.46892297 Z" id="Path" stroke-width="0.75" fill="#000000"></path>
            </g>
        </g>
    </g>
</svg>