<?xml version="1.0" encoding="UTF-8"?>
<svg width="24px" height="24px" viewBox="0 0 24 24" version="1.1" xmlns="http://www.w3.org/2000/svg" xmlns:xlink="http://www.w3.org/1999/xlink">
    <title>Message video</title>
    <g id="Icones_Outline" stroke="none" stroke-width="1" fill="none" fill-rule="evenodd">
        <g id="Message-video" stroke="#000000">
            <path d="M12,2.875 C14.5197992,2.875 16.8010492,3.89635041 18.4523494,5.54765062 C20.1036496,7.19895083 21.125,9.48020083 21.125,12 L21.125,12 L21.125,21.125 L12,21.125 C9.48020083,21.125 7.19895083,20.1036496 5.54765062,18.4523494 C3.89635041,16.8010492 2.875,14.5197992 2.875,12 C2.875,9.48020083 3.89635041,7.19895083 5.54765062,5.54765062 C7.19895083,3.89635041 9.48020083,2.875 12,2.875 Z" id="Rectangle-Copy-3" stroke-width="1.75"></path>
            <g id="Ico_Camera" transform="translate(7.000000, 8.000000)" stroke-width="1.5">
                <path d="M4.6832026,4.0582026 C5.29164453,3.875 5.4463271,3.94580015 5.55869578,4.05817556 C5.67108489,4.17057139 5.74188438,4.32529267 5.74188438,4.49598322 C5.74188438,4.66664052 5.67108115,4.8213337 5.55870252,4.93371234 C5.44633138,5.04608348 5.29164686,5.11688438 5.12098322,5.11688438 C4.95029879,5.11688438 4.7955881,5.04607082 4.68319586,4.93368531 C4.57081655,4.82131272 4.5,4.66663207 4.5,4.49598322 C4.5,4.32530112 4.57081281,4.17059238 4.6832026,4.0582026 Z" id="Path"></path>
                <path d="M5.8691951,0.75 L6.46662157,1.94485294 L8.96139706,1.94485294 L9.04779412,7.28860294 L0.836397059,7.375 L0.75,2.03125 L3.33117255,1.94485294 L3.92859902,0.75 L5.8691951,0.75 Z" id="Path"></path>
            </g>
        </g>
    </g>
</svg>