<?xml version="1.0" encoding="UTF-8"?>
<svg width="24px" height="24px" viewBox="0 0 24 24" version="1.1" xmlns="http://www.w3.org/2000/svg" xmlns:xlink="http://www.w3.org/1999/xlink">
    <title>Micro</title>
    <g id="Icones_Outline" stroke="none" stroke-width="1" fill="none" fill-rule="evenodd">
        <g id="Micro" fill-rule="nonzero" stroke="#000000">
            <g id="Group" transform="translate(5.000000, 2.000000)">
                <path d="M6.56527519,0.974075391 C7.45579029,0.974075391 8.26271949,1.33613472 8.84711447,1.9205297 C9.43150944,2.50492467 9.79356877,3.31185387 9.79356877,4.20236897 L9.79356877,4.20236897 L9.79356877,10.2205384 C9.79356877,11.1110527 9.43150906,11.917982 8.84711379,12.5023773 C8.2627189,13.0867722 7.45579,13.4488319 6.56527519,13.4488319 C5.67476035,13.4488319 4.86783137,13.0867721 4.2834364,12.5023772 C3.6990411,11.917982 3.33698134,11.1110526 3.33698134,10.2205384 L3.33698134,10.2205384 L3.33698134,4.20236897 C3.33698134,3.31185389 3.69904072,2.50492472 4.28343573,1.92052975 C4.86783077,1.33613475 5.67476006,0.974075391 6.56527519,0.974075391 Z" id="Path" stroke-width="1.75"></path>
                <path d="M0.555659536,6.93784593 C0.263494091,6.93333516 -0.00456587154,7.20139238 -5.2430396e-05,7.49355783 L-5.2430396e-05,10.2290732 C-5.2430396e-05,13.673624 2.64524538,16.4924773 6.01816938,16.768711 L6.01816938,18.7006784 L3.82974614,18.7006784 C3.52758781,18.7006784 3.28264033,18.9456177 3.28264033,19.2477842 C3.28264033,19.5499508 3.52758781,19.79489 3.82974614,19.79489 L9.30080425,19.79489 C9.60296258,19.79489 9.84791006,19.5499508 9.84791006,19.2477842 C9.84791006,18.9456177 9.60296258,18.7012802 9.30080425,18.7006784 L7.112381,18.7006784 L7.112381,16.768711 C10.4853047,16.4924773 13.1305918,13.673624 13.1305918,10.2290732 L13.1305918,7.49355783 C13.1346209,7.20451636 12.8725107,6.93866123 12.5834391,6.93866123 C12.2943675,6.93866123 12.0322464,7.20451636 12.0363333,7.49355783 L12.0363333,10.2290732 C12.0363333,13.2695043 9.60570358,15.7001313 6.56527519,15.7001313 C3.52484407,15.7001313 1.09421682,13.2695043 1.09421682,10.2290732 L1.09421682,7.49355783 C1.09870309,7.20709323 0.842124138,6.94237335 0.555659536,6.93784593 Z" id="Path" stroke-width="0.5" fill="#000000"></path>
            </g>
        </g>
    </g>
</svg>