<?xml version="1.0" encoding="utf-8"?>
<!-- Generator: Adobe Illustrator 24.3.0, SVG Export Plug-In . SVG Version: 6.00 Build 0)  -->
<svg version="1.1" id="Layer_1" xmlns="http://www.w3.org/2000/svg" xmlns:xlink="http://www.w3.org/1999/xlink" x="0px" y="0px"
	 viewBox="0 0 24 24" style="enable-background:new 0 0 24 24;" xml:space="preserve">
<style type="text/css">
	.st0{fill:#231F20;}
</style>
<path class="st0" d="M20.5,1.5h-17c-1.1,0-2,0.9-2,2v17c0,1.1,0.9,2,2,2h17c1.1,0,2-0.9,2-2v-17C22.5,2.4,21.6,1.5,20.5,1.5z
	 M21.1,3.5v7.8h-8.4V2.9h7.8C20.8,2.9,21.1,3.2,21.1,3.5z M3.5,2.9h7.8v8.4H2.9V3.5C2.9,3.2,3.2,2.9,3.5,2.9z M2.9,20.5v-7.8h8.4
	v8.4H3.5C3.2,21.1,2.9,20.8,2.9,20.5z M20.5,21.1h-7.8v-8.4h8.4v7.8C21.1,20.8,20.8,21.1,20.5,21.1z"/>
</svg>
