<?xml version="1.0" encoding="UTF-8"?>
<svg width="24px" height="24px" viewBox="0 0 24 24" version="1.1" xmlns="http://www.w3.org/2000/svg" xmlns:xlink="http://www.w3.org/1999/xlink">
    <title>Plugin</title>
    <g id="Icones_Outline" stroke="none" stroke-width="1" fill="none" fill-rule="evenodd">
        <g id="Plugin" fill="#000000" fill-rule="nonzero" stroke="#000000" stroke-width="0.75">
            <g id="noun_add-on-plugin_2469914" transform="translate(2.000000, 2.000000)">
                <path d="M7.95454545,-2.58379177e-14 C6.07714045,-2.58379177e-14 4.54545455,1.53168636 4.54545455,3.40909091 C4.54545455,3.81146364 4.63639864,4.18709545 4.765625,4.54545455 L0.454545455,4.54545455 C0.203517329,4.54547964 -3.28047432e-07,4.74897187 -3.28047432e-07,5 L-3.28047432e-07,9.54545909 C-3.28047432e-07,9.69805849 0.0762260247,9.84056553 0.20341697,9.92488084 C0.330607915,10.0091961 0.49161786,10.0240699 0.632102273,9.96448182 C0.928123182,9.84116364 1.2500475,9.77273182 1.59090909,9.77273182 C2.977005,9.77273182 4.09090909,10.8866409 4.09090909,12.2727318 C4.09090909,13.6588227 2.977005,14.7727318 1.59090909,14.7727318 C1.2500475,14.7727318 0.928123182,14.7043 0.632102273,14.5809591 C0.491614149,14.5213694 0.330599681,14.5362456 0.203407479,14.6205663 C0.0762152768,14.704887 -3.28047432e-07,14.8474011 -3.28047432e-07,15 L-3.28047432e-07,19.5454591 C-3.28047432e-07,19.7964872 0.203517329,20 0.454545455,20 L15.4545455,20 C15.7055736,20 15.9090658,19.7964872 15.9090909,19.5454591 L15.9090909,15.6108 C16.1285164,15.6553682 16.3589991,15.6818227 16.5909091,15.6818227 C18.4683141,15.6818227 19.9999997,14.1501409 19.9999997,12.2727318 C19.9999997,10.3953227 18.4683141,8.86363636 16.5909091,8.86363636 C16.3589991,8.86363636 16.1285164,8.89009545 15.9090909,8.93465909 L15.9090909,5 C15.9090658,4.74897187 15.7055736,4.54547964 15.4545455,4.54545455 L11.1434659,4.54545455 C11.2726923,4.18709545 11.3636364,3.81146364 11.3636364,3.40909091 C11.3636364,1.53168636 9.83195045,-2.58379177e-14 7.95454545,-2.58379177e-14 L7.95454545,-2.58379177e-14 Z M7.95454545,0.909090909 C9.34064136,0.909090909 10.4545455,2.02299545 10.4545455,3.40909091 C10.4545455,3.90517045 10.3070727,4.36090227 10.0568182,4.75142045 C9.96529803,4.89157836 9.95820859,5.07069263 10.0383647,5.21764558 C10.1185209,5.36459852 10.272952,5.45561067 10.4403409,5.45454545 L15,5.45454545 L15,9.54545909 C14.9998246,9.69805849 15.076226,9.84056553 15.203417,9.92488084 C15.3306079,10.0091961 15.4916179,10.0240699 15.6321023,9.96448182 C15.928123,9.84116364 16.2500475,9.77273182 16.5909091,9.77273182 C17.977005,9.77273182 19.0909091,10.8866409 19.0909091,12.2727318 C19.0909091,13.6588227 17.977005,14.7727318 16.5909091,14.7727318 C16.2500475,14.7727318 15.928123,14.7043 15.6321023,14.5809591 C15.4916141,14.5213694 15.3305997,14.5362456 15.2034075,14.6205663 C15.0762153,14.704887 14.999817,14.8474011 15,15.0000045 L15,19.0909136 L0.909090909,19.0909136 L0.909090909,15.6108 C1.12851636,15.6553682 1.35899909,15.6818227 1.59090909,15.6818227 C3.46831409,15.6818227 5,14.1501409 5,12.2727318 C5,10.3953227 3.46831409,8.86363636 1.59090909,8.86363636 C1.35899909,8.86363636 1.12851636,8.89009545 0.909090909,8.93465909 L0.909090909,5.45454545 L5.46875,5.45454545 C5.6361389,5.45561067 5.79057002,5.36459852 5.87072617,5.21764558 C5.95088232,5.07069263 5.94379288,4.89157836 5.85227273,4.75142045 C5.60201818,4.36090227 5.45454545,3.90517045 5.45454545,3.40909091 C5.45454545,2.02299545 6.56844955,0.909090909 7.95454545,0.909090909 L7.95454545,0.909090909 Z" id="Shape"></path>
            </g>
        </g>
    </g>
</svg>