<?xml version="1.0" encoding="UTF-8"?>
<svg width="24px" height="24px" viewBox="0 0 24 24" version="1.1" xmlns="http://www.w3.org/2000/svg" xmlns:xlink="http://www.w3.org/1999/xlink">
    <title>QR Code</title>
    <g id="Icones" stroke="none" stroke-width="1" fill="none" fill-rule="evenodd">
        <g id="QR-Code" fill="#000000" stroke="#000000" stroke-width="0.5">
            <g id="QR" transform="translate(2.000000, 2.000000)">
                <path d="M0.8,6.79 L6.79,6.79 L6.79,0.8 L0.8,0.8 L0.8,6.79 Z M0.4,7.59 L7.19,7.59 C7.4108,7.59 7.59,7.4112 7.59,7.19 L7.59,0.4 C7.59,0.1788 7.4108,0 7.19,0 L0.4,0 C0.1788,0 0,0.1788 0,0.4 L0,7.19 C0,7.4112 0.1788,7.59 0.4,7.59 L0.4,7.59 Z" id="Fill-1"></path>
                <path d="M2.8,4.79 L4.79,4.79 L4.79,2.8 L2.8,2.8 L2.8,4.79 Z M5.19,2 L2.4,2 C2.1788,2 2,2.1788 2,2.4 L2,5.19 C2,5.4112 2.1788,5.59 2.4,5.59 L5.19,5.59 C5.4108,5.59 5.59,5.4112 5.59,5.19 L5.59,2.4 C5.59,2.1788 5.4108,2 5.19,2 L5.19,2 Z" id="Fill-3"></path>
                <path d="M0.8,19.2 L6.79,19.2 L6.79,13.21 L0.8,13.21 L0.8,19.2 Z M7.19,12.4104 L0.4,12.4104 C0.1788,12.4104 0,12.5892 0,12.8104 L0,19.6 C0,19.8212 0.1788,20 0.4,20 L7.19,20 C7.4108,20 7.59,19.8212 7.59,19.6 L7.59,12.8104 C7.59,12.5892 7.4108,12.4104 7.19,12.4104 L7.19,12.4104 Z" id="Fill-4"></path>
                <path d="M2.8,17.2004 L4.79,17.2004 L4.79,15.2104 L2.8,15.2104 L2.8,17.2004 Z M2.4,18 L5.19,18 C5.4108,18 5.59,17.8212 5.59,17.6 L5.59,14.8104 C5.59,14.5892 5.4108,14.4104 5.19,14.4104 L2.4,14.4104 C2.1788,14.4104 2,14.5892 2,14.8104 L2,17.6 C2,17.8212 2.1788,18 2.4,18 L2.4,18 Z" id="Fill-5"></path>
                <path d="M13.21,6.79 L19.2,6.79 L19.2,0.8 L13.21,0.8 L13.21,6.79 Z M19.6,0 L12.81,0 C12.5892,0 12.41,0.1788 12.41,0.4 L12.41,7.19 C12.41,7.4112 12.5892,7.59 12.81,7.59 L19.6,7.59 C19.8212,7.59 20,7.4112 20,7.19 L20,0.4 C20,0.1788 19.8212,0 19.6,0 L19.6,0 Z" id="Fill-6"></path>
                <path d="M15.21,4.79 L17.2,4.79 L17.2,2.8 L15.21,2.8 L15.21,4.79 Z M14.81,5.59 L17.6,5.59 C17.8212,5.59 18,5.4112 18,5.19 L18,2.4 C18,2.1788 17.8212,2 17.6,2 L14.81,2 C14.5892,2 14.41,2.1788 14.41,2.4 L14.41,5.19 C14.41,5.4112 14.5892,5.59 14.81,5.59 L14.81,5.59 Z" id="Fill-7"></path>
                <path d="M19.6,12.41024 C19.3788,12.41024 19.2,12.58904 19.2,12.81024 L19.2,19.20024 L12.81,19.20024 C12.5892,19.20024 12.41,19.37904 12.41,19.60024 C12.41,19.82104 12.5892,20.00024 12.81,20.00024 L19.6,20.00024 C19.8212,20.00024 20,19.82104 20,19.60024 L20,12.81024 C20,12.58904 19.8212,12.41024 19.6,12.41024" id="Fill-8"></path>
                <path d="M12.41016,17.60008 C12.41016,17.82128 12.58896,18.00008 12.81016,18.00008 L17.60016,18.00008 C17.82096,18.00008 18.00016,17.82128 18.00016,17.60008 L18.00016,12.81008 C18.00016,12.58928 17.82096,12.41008 17.60016,12.41008 C17.37896,12.41008 17.20016,12.58928 17.20016,12.81008 L17.20016,17.20008 L12.81016,17.20008 C12.58896,17.20008 12.41016,17.37888 12.41016,17.60008" id="Fill-9"></path>
                <path d="M8.82968,10.35008 L2.37968,10.35008 C2.15848,10.35008 1.97968,10.52888 1.97968,10.75008 C1.97968,10.97128 2.15848,11.15008 2.37968,11.15008 L8.42968,11.15008 L8.42968,14.70008 C8.42968,14.92128 8.60848,15.10008 8.82968,15.10008 C9.05088,15.10008 9.22968,14.92128 9.22968,14.70008 L9.22968,10.75008 C9.22968,10.52888 9.05088,10.35008 8.82968,10.35008" id="Fill-10"></path>
                <path d="M9.72968,2.35008 C9.50848,2.35008 9.32968,2.52888 9.32968,2.75008 L9.32968,7.35008 C9.32968,7.57128 9.50848,7.75008 9.72968,7.75008 C9.95088,7.75008 10.12968,7.57128 10.12968,7.35008 L10.12968,2.75008 C10.12968,2.52888 9.95088,2.35008 9.72968,2.35008" id="Fill-11"></path>
                <path d="M13.62968,9.10008 L11.02968,9.10008 C10.80848,9.10008 10.62968,9.27888 10.62968,9.50008 C10.62968,9.72128 10.80848,9.90008 11.02968,9.90008 L13.62968,9.90008 C13.85088,9.90008 14.02968,9.72128 14.02968,9.50008 C14.02968,9.27888 13.85088,9.10008 13.62968,9.10008" id="Fill-12"></path>
                <path d="M14.02968,14.70008 C14.02968,14.47888 13.85088,14.30008 13.62968,14.30008 L11.02968,14.30008 C10.80848,14.30008 10.62968,14.47888 10.62968,14.70008 L10.62968,18.95008 C10.62968,19.17128 10.80848,19.35008 11.02968,19.35008 C11.25088,19.35008 11.42968,19.17128 11.42968,18.95008 L11.42968,15.10008 L13.62968,15.10008 C13.85088,15.10008 14.02968,14.92128 14.02968,14.70008" id="Fill-13"></path>
                <path d="M16.02968,13.50008 L16.02968,10.40008 L18.72968,10.40008 C18.95088,10.40008 19.12968,10.22128 19.12968,10.00008 C19.12968,9.77888 18.95088,9.60008 18.72968,9.60008 L15.62968,9.60008 C15.40848,9.60008 15.22968,9.77888 15.22968,10.00008 L15.22968,13.50008 C15.22968,13.72128 15.40848,13.90008 15.62968,13.90008 C15.85088,13.90008 16.02968,13.72128 16.02968,13.50008" id="Fill-14"></path>
                <path d="M13.62968,11.60008 L11.77968,11.60008 C11.55848,11.60008 11.37968,11.77888 11.37968,12.00008 C11.37968,12.22128 11.55848,12.40008 11.77968,12.40008 L13.62968,12.40008 C13.85088,12.40008 14.02968,12.22128 14.02968,12.00008 C14.02968,11.77888 13.85088,11.60008 13.62968,11.60008" id="Fill-15"></path>
                <path d="M7.18984,8.45008 L3.02984,8.45008 C2.80864,8.45008 2.62984,8.62888 2.62984,8.85008 C2.62984,9.07128 2.80864,9.25008 3.02984,9.25008 L7.18984,9.25008 C7.41104,9.25008 7.58984,9.07128 7.58984,8.85008 C7.58984,8.62888 7.41104,8.45008 7.18984,8.45008" id="Fill-16"></path>
            </g>
        </g>
    </g>
</svg>