<?xml version="1.0" encoding="UTF-8"?>
<svg width="24px" height="24px" viewBox="0 0 24 24" version="1.1" xmlns="http://www.w3.org/2000/svg" xmlns:xlink="http://www.w3.org/1999/xlink">
    <title>Share</title>
    <g id="Icones_Outline" stroke="none" stroke-width="1" fill="none" fill-rule="evenodd">
        <g id="noun_Share-Screen_1050685" transform="translate(2.000000, 5.000000)">
            <g stroke="#000000" stroke-width="1.75">
                <path d="M17.0041051,1.01578125 C17.295919,1.01578125 17.5601151,1.13409316 17.7513632,1.3253413 C17.9426114,1.51658945 18.0609233,1.78078551 18.0609233,2.07259943 L18.0609233,2.07259943 L18.0609233,11.0072585 C18.0609233,11.2990724 17.9426114,11.5632685 17.7513632,11.7545167 C17.5601151,11.9457648 17.295919,12.0640767 17.0041051,12.0640767 L17.0041051,12.0640767 L2.79703125,12.0640767 C2.50521733,12.0640767 2.24102127,11.9457648 2.04977312,11.7545167 C1.85852497,11.5632685 1.74021307,11.2990724 1.74021307,11.0072585 L1.74021307,11.0072585 L1.74021307,2.07259943 C1.74021307,1.78078551 1.85852497,1.51658945 2.04977312,1.3253413 C2.24102127,1.13409316 2.50521733,1.01578125 2.79703125,1.01578125 L2.79703125,1.01578125 Z" id="Shape" fill-rule="nonzero"></path>
                <line x1="0.5" y1="14.5" x2="19.5" y2="14.5" id="Line-2" stroke-linecap="square"></line>
            </g>
            <g id="Path-4" transform="translate(5.539006, 2.795099)" fill="#000000" fill-rule="nonzero">
                <path d="M5.36852273,1.37352273 L5.36852273,-4.84460956e-15 L8.72336648,2.87164773 L5.36852273,5.74305398 L5.36852273,4.08410511 C1.01106534,4.20460227 1.61486985e-15,7.48990057 1.61486985e-15,7.48990057 C0.0258380682,2.27519886 4.19639205,1.49112216 5.36852273,1.37352273 Z" id="Path"></path>
            </g>
        </g>
    </g>
</svg>