<?xml version="1.0" encoding="utf-8"?>
<!-- Generator: Adobe Illustrator 24.3.0, SVG Export Plug-In . SVG Version: 6.00 Build 0)  -->
<svg version="1.1" id="Layer_1" xmlns="http://www.w3.org/2000/svg" xmlns:xlink="http://www.w3.org/1999/xlink" x="0px" y="0px"
	 viewBox="0 0 24 24" style="enable-background:new 0 0 24 24;" xml:space="preserve">
<g id="Send_Black_24dp">
	<g id="noun_send_1433498" transform="translate(2.000000, 3.000000)">
		<path id="Shape" d="M20,9c0-0.3-0.2-0.5-0.4-0.6L1.1-0.2C0.8-0.3,0.4-0.2,0.2,0s-0.3,0.6-0.1,0.9L4,9l-3.9,8.1
			C-0.1,17.4,0,17.8,0.2,18c0.2,0.2,0.6,0.3,0.9,0.2l18.5-8.5C19.8,9.6,20,9.3,20,9L20,9z M17.4,9l-15,6.9l3.2-6.5
			c0.1-0.2,0.1-0.5,0-0.7L2.4,2.1L17.4,9z"/>
	</g>
</g>
</svg>
