<?xml version="1.0" encoding="UTF-8"?>
<svg width="24px" height="24px" viewBox="0 0 24 24" version="1.1" xmlns="http://www.w3.org/2000/svg" xmlns:xlink="http://www.w3.org/1999/xlink">
    <title>Moderateur</title>
    <g id="Icones" stroke="none" stroke-width="1" fill="none" fill-rule="evenodd">
        <g id="Link" fill="#000000" fill-rule="nonzero" stroke="#000000" stroke-width="0.5">
            <g id="noun_attach_998912" transform="translate(11.981262, 12.084524) rotate(25.000000) translate(-11.981262, -12.084524) translate(6.981262, 2.084524)">
                <path d="M4.58333333,20 C2.05607096,20 0,17.943929 0,15.4166667 L0,3.33333333 C0,1.49536133 1.49536133,0 3.33333333,0 C5.17130533,0 6.66666667,1.49536133 6.66666667,3.33333333 L6.66666667,14.1666667 C6.66666667,15.3153483 5.73201496,16.25 4.58333333,16.25 C3.43465171,16.25 2.5,15.3153483 2.5,14.1666667 L2.5,4.56075033 C2.5,4.33064779 2.68636067,4.14408367 2.91666667,4.14408367 C3.14697267,4.14408367 3.33333333,4.33064779 3.33333333,4.56075033 L3.33333333,14.1666667 C3.33333333,14.855957 3.89404296,15.4166667 4.58333333,15.4166667 C5.27262371,15.4166667 5.83333333,14.855957 5.83333333,14.1666667 L5.83333333,3.33333333 C5.83333333,1.95475258 4.71191404,0.833333333 3.33333333,0.833333333 C1.95475262,0.833333333 0.833333333,1.95475263 0.833333333,3.33333333 L0.833333333,15.4166667 C0.833333333,17.4843343 2.51546225,19.1666667 4.58333333,19.1666667 C6.65120442,19.1666667 8.33333333,17.4843343 8.33333333,15.4166667 L8.33333333,4.04276529 C8.33333333,3.81266275 8.519694,3.62609863 8.75,3.62609863 C8.980306,3.62609863 9.16666667,3.81266275 9.16666667,4.04276529 L9.16666667,15.4166667 C9.16666667,17.943929 7.11059571,20 4.58333333,20 Z" id="Path"></path>
            </g>
        </g>
    </g>
</svg>