<?xml version="1.0" encoding="UTF-8"?>
<svg width="24px" height="24px" viewBox="0 0 24 24" version="1.1" xmlns="http://www.w3.org/2000/svg" xmlns:xlink="http://www.w3.org/1999/xlink">
    <title>Moderateur</title>
    <g id="Icones" stroke="none" stroke-width="1" fill="none" fill-rule="evenodd">
        <g id="Settings" fill="#000000" fill-rule="nonzero">
            <g id="Shape" transform="translate(2.000000, 2.000000)">
                <path d="M0.833333333,4.16666667 L3.45208333,4.16666667 C3.82561804,5.63721759 5.14941646,6.66679689 6.66666667,6.66679689 C8.18391688,6.66679689 9.5077153,5.63721759 9.88125,4.16666667 L19.1666667,4.16666667 C19.626904,4.16666667 20,3.79357062 20,3.33333333 C20,2.87309604 19.626904,2.5 19.1666667,2.5 L9.88125,2.5 C9.5077153,1.02944908 8.18391688,-0.000130218715 6.66666667,-0.000130218715 C5.14941646,-0.000130218715 3.82561804,1.02944908 3.45208333,2.5 L0.833333333,2.5 C0.373096042,2.5 0,2.87309604 0,3.33333333 C0,3.79357062 0.373096042,4.16666667 0.833333333,4.16666667 L0.833333333,4.16666667 Z M6.66666667,1.66666667 C7.58714125,1.66666667 8.33333333,2.41285875 8.33333333,3.33333333 C8.33333333,4.25380792 7.58714125,5 6.66666667,5 C5.74619208,5 5,4.25380792 5,3.33333333 C5,2.41285875 5.74619208,1.66666667 6.66666667,1.66666667 Z"></path>
                <path d="M0.833333333,10.8333333 L10.11875,10.8333333 C10.4922847,12.3038843 11.8160831,13.3334636 13.3333333,13.3334636 C14.8505835,13.3334636 16.174382,12.3038843 16.5479167,10.8333333 L19.1666667,10.8333333 C19.626904,10.8333333 20,10.4602373 20,10 C20,9.53976271 19.626904,9.16666667 19.1666667,9.16666667 L16.5479167,9.16666667 C16.174382,7.69611574 14.8505835,6.66653645 13.3333333,6.66653645 C11.8160831,6.66653645 10.4922847,7.69611574 10.11875,9.16666667 L0.833333333,9.16666667 C0.373096042,9.16666667 0,9.53976271 0,10 C0,10.4602373 0.373096042,10.8333333 0.833333333,10.8333333 L0.833333333,10.8333333 Z M13.3333333,8.33333333 C14.2538079,8.33333333 15,9.07952542 15,10 C15,10.9204746 14.2538079,11.6666667 13.3333333,11.6666667 C12.4128588,11.6666667 11.6666667,10.9204746 11.6666667,10 C11.6666667,9.07952542 12.4128588,8.33333333 13.3333333,8.33333333 Z"></path>
                <path d="M0.833333333,17.5 L3.45208333,17.5 C3.82561804,18.9705509 5.14941646,20.0001302 6.66666667,20.0001302 C8.18391688,20.0001302 9.5077153,18.9705509 9.88125,17.5 L19.1666667,17.5 C19.626904,17.5 20,17.126904 20,16.6666667 C20,16.2064294 19.626904,15.8333333 19.1666667,15.8333333 L9.88125,15.8333333 C9.5077153,14.3627824 8.18391688,13.3332031 6.66666667,13.3332031 C5.14941646,13.3332031 3.82561804,14.3627824 3.45208333,15.8333333 L0.833333333,15.8333333 C0.373096042,15.8333333 0,16.2064294 0,16.6666667 C0,17.126904 0.373096042,17.5 0.833333333,17.5 Z M6.66666667,15 C7.58714125,15 8.33333333,15.7461921 8.33333333,16.6666667 C8.33333333,17.5871412 7.58714125,18.3333333 6.66666667,18.3333333 C5.74619208,18.3333333 5,17.5871412 5,16.6666667 C5,15.7461921 5.74619208,15 6.66666667,15 Z"></path>
            </g>
        </g>
    </g>
</svg>