<?xml version="1.0" encoding="UTF-8"?>
<svg width="24px" height="24px" viewBox="0 0 24 24" version="1.1" xmlns="http://www.w3.org/2000/svg" xmlns:xlink="http://www.w3.org/1999/xlink">
    <title>Moderateur</title>
    <g id="Icones" stroke="none" stroke-width="1" fill="none" fill-rule="evenodd">
        <g id="Share" fill="#000000" stroke="#000000" stroke-width="0.75">
            <g id="SHARE" transform="translate(2.000000, 2.000000)">
                <path d="M13.5,15.00005 C14.6105,15.00005 15.5,15.88955 15.5,17.00005 C15.5,18.1103 14.6105,19.00005 13.5,19.00005 C12.3895,19.00005 11.5,18.1103 11.5,17.00005 C11.5,15.88955 12.3895,15.00005 13.5,15.00005 M3,8.00005 C4.1105,8.00005 5,8.88955 5,10.00005 C5,11.11055 4.1105,12.00005 3,12.00005 C1.8895,12.00005 1,11.11055 1,10.00005 C1,8.88955 1.8895,8.00005 3,8.00005 M13.5,1.00005 C14.6105,1.00005 15.5,1.88955 15.5,3.00005 C15.5,4.11055 14.6105,5.00005 13.5,5.00005 C12.3895,5.00005 11.5,4.11055 11.5,3.00005 C11.5,1.88955 12.3895,1.00005 13.5,1.00005 M13.5,5e-05 C11.849,5e-05 10.5,1.34905 10.5,3.00005 C10.5,3.47555 10.6135,3.92755 10.8125,4.32805 L5.086,7.85155 C4.545,7.3263 3.8095,7.00005 3,7.00005 C1.349,7.00005 0,8.34905 0,10.00005 C0,11.65105 1.349,13.00005 3,13.00005 C3.81525,13.00005 4.552,12.67255 5.09375,12.14055 L10.82025,15.66405 C10.6165,16.0683 10.5,16.51805 10.5,17.00005 C10.5,18.65105 11.849,20.00005 13.5,20.00005 C15.151,20.00005 16.5,18.65105 16.5,17.00005 C16.5,15.34905 15.151,14.00005 13.5,14.00005 C12.6905,14.00005 11.955,14.3263 11.414,14.85155 L5.6875,11.32805 C5.8865,10.92755 6,10.47555 6,10.00005 C6,9.51805 5.8835,9.06855 5.67975,8.66405 L11.40625,5.14055 C11.94825,5.67255 12.68475,6.00005 13.5,6.00005 C15.151,6.00005 16.5,4.65105 16.5,3.00005 C16.5,1.34905 15.151,5e-05 13.5,5e-05" id="Fill-1"></path>
            </g>
        </g>
    </g>
</svg>
