<?xml version="1.0" encoding="utf-8"?>
<!-- Generator: Adobe Illustrator 24.3.0, SVG Export Plug-In . SVG Version: 6.00 Build 0)  -->
<svg version="1.1" id="Layer_1" xmlns="http://www.w3.org/2000/svg" xmlns:xlink="http://www.w3.org/1999/xlink" x="0px" y="0px"
	 viewBox="0 0 24 24" style="enable-background:new 0 0 24 24;" xml:space="preserve">
<path id="Path" d="M12.6,8.9V7.7l2.6,2.2l-2.6,2.2V11c-3.4,0.1-4.3,2.6-4.3,2.6C8.5,9.6,11.7,9,12.6,8.9z"/>
<g id="Icones_Outline">
	<g id="Laptop_Black_24dp">
		<g transform="translate(2.000000, 5.000000)">
			<g id="Shape">
				<path d="M17.1,12.1H2.7c-0.5,0-0.9-0.2-1.2-0.5c-0.4-0.4-0.6-0.8-0.6-1.3v-9c0-0.5,0.2-0.9,0.5-1.2s0.8-0.5,1.2-0.5h14.5
					c0.5,0,0.9,0.2,1.2,0.5c0.3,0.3,0.5,0.8,0.5,1.2v9c0,0.5-0.2,0.9-0.5,1.2C18,11.8,17.6,12.1,17.1,12.1z M2.7,0.8
					c-0.1,0-0.2,0.1-0.3,0.1c0,0.1-0.1,0.2-0.1,0.3v9c0,0.1,0,0.2,0.1,0.3c0,0,0.1,0.1,0.3,0.1h14.4c0.1,0,0.2-0.1,0.3-0.1
					c0.1-0.1,0.1-0.2,0.1-0.3v-9c0-0.1,0-0.2-0.1-0.3c0,0-0.1-0.1-0.3-0.1C17.1,0.8,2.7,0.8,2.7,0.8z"/>
			</g>
			<g id="Line-2">
				<path d="M19.6,14.5H0.4c-0.4,0-0.7-0.3-0.7-0.7s0.3-0.7,0.7-0.7h19.3c0.4,0,0.7,0.3,0.7,0.7S20,14.5,19.6,14.5z"/>
			</g>
		</g>
	</g>
</g>
</svg>
