<?xml version="1.0" encoding="utf-8"?>
<!-- Generator: Adobe Illustrator 24.3.0, SVG Export Plug-In . SVG Version: 6.00 Build 0)  -->
<svg version="1.1" id="Layer_1" xmlns="http://www.w3.org/2000/svg" xmlns:xlink="http://www.w3.org/1999/xlink" x="0px" y="0px"
	 viewBox="0 0 24 24" style="enable-background:new 0 0 24 24;" xml:space="preserve">
<g>
	<path d="M14.6,4c-0.4-0.7-1.3-0.8-2-0.4L6.8,7.7H4.1C3,7.7,2,8.7,2,9.9v4.3c0,1.2,1,2.1,2.1,2.1h2.6l5.8,4.1
		c0.2,0.2,0.5,0.2,0.8,0.2c0.8,0,1.4-0.6,1.5-1.4V4.8C14.9,4.5,14.8,4.2,14.6,4z M13.4,19.2L13.4,19.2l-5.7-4l-0.4-0.3h-1H6.1h-2
		c-0.4,0-0.7-0.3-0.7-0.7V9.9c0-0.4,0.3-0.7,0.7-0.7H6h0.2h1l0.4-0.3l5.7-4L13.4,19.2L13.4,19.2z"/>
	<path d="M19.1,12c0,1.5-0.6,2.9-1.6,4c-0.3,0.3-0.7,0.3-1,0c-0.3-0.3-0.3-0.7,0-1c1.6-1.7,1.6-4.3,0-6c-0.3-0.3-0.3-0.7,0-1
		c0.3-0.3,0.7-0.3,1,0C18.6,9.1,19.1,10.5,19.1,12z"/>
	<path d="M18.9,5.1c-0.3-0.3-0.7-0.2-1,0c-0.3,0.3-0.2,0.7,0,1c3.3,2.9,3.5,8,0.6,11.2c-0.2,0.2-0.4,0.4-0.6,0.6
		c-0.3,0.3-0.3,0.7,0,1c0.3,0.3,0.7,0.3,1,0c3.8-3.5,4.1-9.4,0.7-13.2C19.4,5.5,19.1,5.3,18.9,5.1L18.9,5.1z"/>
</g>
<g>
	<path d="M3.3,20.7c-0.2,0-0.3-0.1-0.5-0.2c-0.3-0.3-0.3-0.7-0.1-1L16.3,3.7c0.3-0.3,0.7-0.3,1-0.1c0.3,0.3,0.3,0.7,0.1,1L3.8,20.5
		C3.7,20.6,3.5,20.7,3.3,20.7z"/>
</g>
</svg>
