<?xml version="1.0" encoding="utf-8"?>
<!-- Generator: Adobe Illustrator 24.3.0, SVG Export Plug-In . SVG Version: 6.00 Build 0)  -->
<svg version="1.1" id="Layer_1" xmlns="http://www.w3.org/2000/svg" xmlns:xlink="http://www.w3.org/1999/xlink" x="0px" y="0px"
	 viewBox="0 0 24 24" style="enable-background:new 0 0 24 24;" xml:space="preserve">
<g>
	<path d="M12,14.2c1.4,0,2.5-1.1,2.5-2.5c0-1.4-1.1-2.5-2.5-2.5s-2.5,1.1-2.5,2.5C9.5,13.1,10.6,14.2,12,14.2z M10.8,11.8
		c0-0.7,0.5-1.2,1.2-1.2s1.2,0.5,1.2,1.2c0,0.7-0.5,1.2-1.2,1.2S10.8,12.4,10.8,11.8z"/>
	<path d="M8.3,18.3c0.3,0,0.6-0.3,0.6-0.6v-0.9c0-0.7,0.5-1.2,1.2-1.2h3.7c0.7,0,1.2,0.5,1.2,1.2v0.9c0,0.3,0.3,0.6,0.6,0.6
		c0.3,0,0.6-0.3,0.6-0.6v-0.9c0-1.4-1.1-2.5-2.5-2.5h-3.7c-1.4,0-2.5,1.1-2.5,2.5v0.9C7.7,18.1,8,18.3,8.3,18.3z"/>
	<path d="M17.5,4.3H14V3.5C14,2.7,13.3,2,12.5,2h-0.9C10.7,2,10,2.7,10,3.5v0.7H6.5c-1.4,0-2.5,1.1-2.5,2.5v12.8
		c0,1.4,1.1,2.5,2.5,2.5h11c1.4,0,2.5-1.1,2.5-2.5V6.7C19.9,5.4,18.8,4.3,17.5,4.3z M12.7,6.3c0,0.2-0.1,0.3-0.3,0.3h-0.9
		c-0.2,0-0.3-0.1-0.3-0.3V3.5c0-0.2,0.1-0.3,0.3-0.3h0.9c0.2,0,0.3,0.1,0.3,0.3V6.3z M6.5,5.5H10v0.7c0,0.9,0.7,1.5,1.5,1.5h0.9
		c0.9,0,1.5-0.7,1.5-1.5V5.5h3.5c0.7,0,1.2,0.5,1.2,1.2v12.8c0,0.7-0.5,1.2-1.2,1.2h-11c-0.7,0-1.2-0.5-1.2-1.2V6.7
		C5.3,6.1,5.9,5.5,6.5,5.5z"/>
</g>
</svg>
