<?xml version="1.0" encoding="utf-8"?>
<!-- Generator: Adobe Illustrator 24.3.0, SVG Export Plug-In . SVG Version: 6.00 Build 0)  -->
<svg version="1.1" id="Layer_1" xmlns="http://www.w3.org/2000/svg" xmlns:xlink="http://www.w3.org/1999/xlink" x="0px" y="0px"
	 viewBox="0 0 24 24" style="enable-background:new 0 0 24 24;" xml:space="preserve">
<path d="M12,2C6.5,2,2,6.5,2,12s4.5,10,10,10s10-4.5,10-10S17.5,2,12,2z M4.1,8.4c1.4-3,4.5-5.1,7.9-5.1c2.1,0,4.1,0.7,5.6,2.1l-2,2
	c-0.3-1.8-1.7-3.1-3.6-3.1C10,4.4,8.4,6,8.4,8c0,1.7,1.1,3,2.6,3.5c-2.7,0.5-4.9,2.9-5.5,6l-0.1,0.1C3.2,15,2.7,11.4,4.1,8.4z
	 M12.7,10.3c-0.2,0.1-0.5,0.1-0.7,0.1c-1.4,0-2.4-1-2.4-2.4s1-2.4,2.4-2.4c1.4,0,2.4,1,2.4,2.4c0,0.3,0,0.5-0.1,0.7L12.7,10.3z
	 M9.8,13.2l-2.3,2.3C8.1,14.5,8.9,13.7,9.8,13.2z M6.6,18.8c0-0.2,0-0.4,0-0.6l5.6-5.6c2.8,0.2,5,2.8,5.1,6.1
	C15.9,20,14,20.7,12,20.7C10,20.7,8.2,20,6.6,18.8z M18.5,17.7c-0.5-3.1-2.5-5.5-5.1-6.1l0.4-0.4c0.5-0.3,1-0.7,1.3-1.3l3.5-3.5
	c2.2,2.6,2.7,6.2,1.3,9.2C19.5,16.4,19.1,17.1,18.5,17.7z"/>
</svg>
