<?xml version="1.0" encoding="utf-8"?>
<!-- Generator: Adobe Illustrator 24.3.0, SVG Export Plug-In . SVG Version: 6.00 Build 0)  -->
<svg version="1.1" id="Layer_1" xmlns="http://www.w3.org/2000/svg" xmlns:xlink="http://www.w3.org/1999/xlink" x="0px" y="0px"
	 viewBox="0 0 24 24" style="enable-background:new 0 0 24 24;" xml:space="preserve">
<g id="Icones_Outline">
	<g id="Chat_Black_24dp">
		<g id="Shape" transform="translate(3.000000, 4.000000)">
			<g>
				<path d="M4.6,17c-0.2,0-0.4,0-0.6-0.1c-0.6-0.3-0.9-0.8-0.9-1.5V13H2.3C0.5,13-1,11.5-1,9.6V2.3C-1,0.5,0.5-1,2.3-1h13.3
					C17.5-1,19,0.5,19,2.3v7.3c0,1.8-1.5,3.3-3.3,3.3H9.5l-3.8,3.6C5.4,16.8,5,17,4.6,17z M2.3,0.4c-1.1,0-1.9,0.9-1.9,2v7.3
					c0,1,0.8,1.9,1.9,1.9h2.2v3.9c0,0,0,0.1,0.1,0.1s0.1,0,0.2,0l4.2-4h6.7c1,0,1.9-0.8,1.9-1.9V2.3c0-1-0.8-1.9-1.9-1.9H2.3
					L2.3,0.4z"/>
			</g>
		</g>
	</g>
</g>
</svg>
