<?xml version="1.0" encoding="utf-8"?>
<!-- Generator: Adobe Illustrator 24.3.0, SVG Export Plug-In . SVG Version: 6.00 Build 0)  -->
<svg version="1.1" id="Layer_1" xmlns="http://www.w3.org/2000/svg" xmlns:xlink="http://www.w3.org/1999/xlink" x="0px" y="0px"
	 viewBox="0 0 24 24" style="enable-background:new 0 0 24 24;" xml:space="preserve">
<path d="M14.2,2.3C14,2.1,13.7,2,13.4,2H5.5C4.8,2,4.3,2.5,4.3,3.2v6.3v1.6v9.7c0,0.7,0.5,1.2,1.2,1.2h13.1c0.7,0,1.2-0.5,1.2-1.2
	V18V8.4c0-0.3-0.1-0.6-0.3-0.8L14.2,2.3z M18,7.7H14c0,0,0,0,0,0V3.7L18,7.7z M18.6,20.9C18.6,20.9,18.6,20.9,18.6,20.9l-13.1,0
	c0,0,0,0,0,0v-9.7V9.5V3.2c0,0,0,0,0,0h7.4v4.5c0,0.7,0.5,1.2,1.2,1.2h4.5v9.2V20.9z"/>
</svg>
