<?xml version="1.0" encoding="utf-8"?>
<!-- Generator: Adobe Illustrator 24.3.0, SVG Export Plug-In . SVG Version: 6.00 Build 0)  -->
<svg version="1.1" id="Layer_1" xmlns="http://www.w3.org/2000/svg" xmlns:xlink="http://www.w3.org/1999/xlink" x="0px" y="0px"
	 viewBox="0 0 24 24" style="enable-background:new 0 0 24 24;" xml:space="preserve">
<path d="M18,6.7L18,6.7c-0.2,0-0.7,0.1-0.8,0.2V5.5c0-1-0.5-1.9-1.5-1.9c-0.2,0-0.7,0-0.8,0.1C15,2.9,14.3,2,13.4,2l0,0
	c-0.7,0-1.3,0.4-1.6,0.9C11,2.6,10,2.8,9.5,3.6c-0.2,0.3-0.3,0.6-0.3,1v9.8l-1-1c-0.8-0.8-2-1.1-3.1-0.7c-0.4,0.1-0.6,0.4-0.8,0.7
	c-0.2,0.3-0.2,0.7-0.1,1.1c0,0.1,0.1,0.2,0.2,0.3l2.3,4c0.4,0.6,0.9,1.1,1.4,1.6c1,1.1,2.8,1.6,4.3,1.6l0,0h2c2.3,0,3.8-1.4,4.7-3.5
	c0.2-0.6,0.4-1.2,0.4-1.9V8.5C19.5,7.8,19.2,6.9,18,6.7z M12.2,11.5c0.3,0,0.6-0.3,0.6-0.6v-7c0-0.3,0.2-0.5,0.5-0.5
	s0.5,0.2,0.5,0.5v7.4c0,0.3,0.3,0.6,0.6,0.6s0.6-0.3,0.6-0.6V5.4c0-0.3,0.2-0.5,0.5-0.5S16,5.1,16,5.4V12c0,0.3,0.3,0.6,0.6,0.6
	c0.3,0,0.6-0.3,0.6-0.6V8.5c0-0.3,0.2-0.5,0.5-0.5s0.5,0.2,0.5,0.5v8.1c0,0.5-0.1,0.9-0.3,1.4c-0.7,1.7-2.2,2.7-4,2.7l0,0H12
	c-1.1,0-2.3-0.5-3.1-1.3c-0.5-0.5-0.9-1-1.2-1.6L5.5,14v-0.1c0,0,0-0.1,0.1-0.1c0.2-0.1,0.4-0.1,0.5-0.1c0.5,0,0.9,0.2,1.2,0.5
	l1.2,1.2c0.4,0.4,1.2,0.4,1.6,0c0.2-0.2,0.3-0.5,0.3-0.8v-10C10.5,4.3,10.7,4,11,4s0.5,0.2,0.5,0.5v6.2
	C11.5,11.2,11.8,11.5,12.2,11.5z M18,6.9L18,6.9L18,6.9L18,6.9z"/>
</svg>
