<?xml version="1.0" encoding="UTF-8"?>
<svg width="24px" height="24px" viewBox="0 0 24 24" version="1.1" xmlns="http://www.w3.org/2000/svg" xmlns:xlink="http://www.w3.org/1999/xlink">
    <title>Arrow Left</title>
    <g id="Icones" stroke="none" stroke-width="1" fill="none" fill-rule="evenodd">
        <g id="&lt;-" fill="#ffffff" transform="translate(2.000000, 5.000000)">
            <path d="M0.302825536,7.53652162 L6.27862638,13.4439361 L6.37822306,13.542393 C6.77660979,13.9362206 7.47378655,13.8377637 7.77257659,13.4439361 C8.07136664,13.0501085 8.07136664,12.3609101 7.67297991,12.0655394 L3.39032264,7.83189235 L18.9274048,7.83189235 C19.5249849,7.83189235 19.9233716,7.43806472 19.9233716,6.84732327 C19.9233716,6.25658182 19.5249849,5.86275419 18.9274048,5.86275419 L3.39032264,5.86275419 L7.67297991,1.62910716 C7.97176996,1.23527953 7.97176996,0.742994993 7.67297991,0.349167363 C7.27459319,-0.0446602682 6.67701311,-0.143117176 6.27862638,0.250710455 L0.302825536,6.15812492 C0.00403549366,6.45349564 -0.0955611871,6.84732327 0.103632174,7.2411509 C0.103632174,7.33960781 0.203228855,7.43806472 0.302825536,7.53652162" id="Fill-1"></path>
        </g>
    </g>
</svg>