<?xml version="1.0" encoding="iso-8859-1"?>
<!-- Generator: Adobe Illustrator 19.0.0, SVG Export Plug-In . SVG Version: 6.00 Build 0)  -->
<svg version="1.1" id="Capa_1" xmlns="http://www.w3.org/2000/svg" xmlns:xlink="http://www.w3.org/1999/xlink" x="0px" y="0px"
	 viewBox="0 0 512 512" style="enable-background:new 0 0 512 512;" xml:space="preserve">
<g>
	<g>
		<g>
			<path d="M64,0C28.715,0,0,28.715,0,64s28.715,64,64,64s64-28.715,64-64S99.285,0,64,0z"/>
			<path d="M64,192c-35.285,0-64,28.715-64,64s28.715,64,64,64s64-28.715,64-64S99.285,192,64,192z"/>
			<path d="M64,384c-35.285,0-64,28.715-64,64c0,35.285,28.715,64,64,64s64-28.715,64-64C128,412.715,99.285,384,64,384z"/>
			<path d="M256,0c-35.285,0-64,28.715-64,64s28.715,64,64,64s64-28.715,64-64S291.285,0,256,0z"/>
			<path d="M256,192c-35.285,0-64,28.715-64,64s28.715,64,64,64s64-28.715,64-64S291.285,192,256,192z"/>
			<path d="M256,384c-35.285,0-64,28.715-64,64c0,35.285,28.715,64,64,64s64-28.715,64-64C320,412.715,291.285,384,256,384z"/>
			<path d="M448,128c35.285,0,64-28.715,64-64S483.285,0,448,0c-35.285,0-64,28.715-64,64S412.715,128,448,128z"/>
			<path d="M448,192c-35.285,0-64,28.715-64,64s28.715,64,64,64c35.285,0,64-28.715,64-64S483.285,192,448,192z"/>
			<path d="M448,384c-35.285,0-64,28.715-64,64c0,35.285,28.715,64,64,64c35.285,0,64-28.715,64-64C512,412.715,483.285,384,448,384
				z"/>
		</g>
	</g>
</g>
<g>
</g>
<g>
</g>
<g>
</g>
<g>
</g>
<g>
</g>
<g>
</g>
<g>
</g>
<g>
</g>
<g>
</g>
<g>
</g>
<g>
</g>
<g>
</g>
<g>
</g>
<g>
</g>
<g>
</g>
</svg>
