<?xml version="1.0" encoding="utf-8"?>
<!-- Generator: Adobe Illustrator 24.3.0, SVG Export Plug-In . SVG Version: 6.00 Build 0)  -->
<svg version="1.1" id="Layer_1" xmlns="http://www.w3.org/2000/svg" xmlns:xlink="http://www.w3.org/1999/xlink" x="0px" y="0px"
	 viewBox="0 0 24 24" style="enable-background:new 0 0 24 24;" xml:space="preserve">
<g id="Icones_Outline">
	<g id="Laptop_Black_24dp">
		<g transform="translate(2.000000, 5.000000)">
			<g id="Shape">
				<path d="M17,12H2.8c-0.5,0-0.9-0.2-1.2-0.5C1.2,11.1,1,10.7,1,10.2V1.3c0-0.5,0.2-0.9,0.5-1.2s0.8-0.5,1.2-0.5H17
					c0.5,0,0.9,0.2,1.2,0.5c0.3,0.3,0.5,0.8,0.5,1.2v8.9c0,0.5-0.2,0.9-0.5,1.2S17.5,12,17,12z M2.8,0.9C2.7,0.9,2.6,1,2.5,1
					c0,0.1-0.1,0.2-0.1,0.3v8.9c0,0.1,0,0.2,0.1,0.3c0,0,0.1,0.1,0.3,0.1H17c0.1,0,0.2-0.1,0.3-0.1c0.1-0.1,0.1-0.2,0.1-0.3V1.3
					c0-0.1,0-0.2-0.1-0.3c0,0-0.1-0.1-0.3-0.1C17,0.9,2.8,0.9,2.8,0.9z"/>
			</g>
			<g id="Line-2">
				<path d="M19.5,14.4h-19c-0.4,0-0.7-0.3-0.7-0.7S0.1,13,0.5,13h19c0.4,0,0.7,0.3,0.7,0.7S19.9,14.4,19.5,14.4z"/>
			</g>
		</g>
	</g>
</g>
</svg>
