<?xml version="1.0" encoding="utf-8"?>
<!-- Generator: Adobe Illustrator 24.3.0, SVG Export Plug-In . SVG Version: 6.00 Build 0)  -->
<svg version="1.1" id="Layer_1" xmlns="http://www.w3.org/2000/svg" xmlns:xlink="http://www.w3.org/1999/xlink" x="0px" y="0px"
	 viewBox="0 0 24 24" style="enable-background:new 0 0 24 24;" xml:space="preserve">
<g>
	<g id="Rectangle-Copy-3">
		<path d="M22,22H12c-2.7,0-5.2-1-7.1-2.9C3,17.2,2,14.7,2,12c0-2.7,1-5.2,2.9-7.1S9.3,2,12,2c2.7,0,5.2,1,7.1,2.9
			C21,6.8,22,9.3,22,12V22z M12,3.4c-2.3,0-4.4,0.9-6.1,2.5C4.3,7.6,3.4,9.7,3.4,12c0,2.3,0.9,4.4,2.5,6.1c1.6,1.6,3.8,2.5,6.1,2.5
			h8.6V12c0-2.3-0.9-4.4-2.5-6.1C16.4,4.3,14.3,3.4,12,3.4z"/>
	</g>
	<g id="Ico_Camera" transform="translate(7.000000, 9.000000)">
		<g id="Path">
			<path d="M7.1,7.7H0.4c-0.8,0-1.2-0.5-1.2-1V0.3c0-0.4,0.4-0.9,1.1-1l6.7,0c0.7,0,1.1,0.5,1.1,1v0.6l1.1-0.6C9.6,0,10,0,10.3,0.2
				c0.2,0.1,0.5,0.3,0.5,0.8v5c0,0.5-0.3,0.8-0.5,0.9C10,7,9.6,7,9.3,6.8L8.2,6.2v0.6C8.2,7.2,7.8,7.7,7.1,7.7z M0.5,6.4l6.4,0V5.1
				c0-0.2,0.1-0.4,0.3-0.6c0.2-0.1,0.4-0.1,0.6,0l1.6,0.9V1.6L7.9,2.5c-0.2,0.1-0.4,0.1-0.6,0C7,2.4,6.9,2.2,6.9,1.9V0.6l-6.4,0V6.4
				z M10,5.7L10,5.7C10,5.7,10,5.7,10,5.7z"/>
		</g>
	</g>
</g>
</svg>
