<?xml version="1.0" encoding="utf-8"?>
<!-- Generator: Adobe Illustrator 24.3.0, SVG Export Plug-In . SVG Version: 6.00 Build 0)  -->
<svg version="1.1" id="Layer_1" xmlns="http://www.w3.org/2000/svg" xmlns:xlink="http://www.w3.org/1999/xlink" x="0px" y="0px"
	 viewBox="0 0 24 24" style="enable-background:new 0 0 24 24;" xml:space="preserve">
<g>
	<path d="M19.1,4.9C17.2,3,14.7,2,12,2S6.8,3,4.9,4.9S2,9.3,2,12s1,5.2,2.9,7.1S9.3,22,12,22h10V12C22,9.3,21,6.8,19.1,4.9z
		 M20.6,20.6H12c-2.3,0-4.4-0.9-6.1-2.5c-1.6-1.6-2.5-3.8-2.5-6.1s0.9-4.4,2.5-6.1C7.6,4.3,9.7,3.4,12,3.4s4.4,0.9,6.1,2.5
		c1.6,1.6,2.5,3.8,2.5,6.1V20.6z"/>
	<path d="M15,10.3c-0.1,0.1-0.2,0.2-0.2,0.4v1.4c0,1.4-1.1,2.5-2.5,2.5s-2.5-1.1-2.5-2.5v-1.4c0-0.1-0.1-0.3-0.2-0.4
		c-0.1-0.1-0.2-0.2-0.4-0.2l0,0c-0.2,0-0.3,0.1-0.4,0.2c-0.1,0.1-0.2,0.2-0.2,0.4v1.4c0,1.8,1.3,3.3,3.1,3.6v0.5h-0.9
		c-0.3,0-0.5,0.2-0.5,0.5s0.2,0.5,0.5,0.5h2.8c0.3,0,0.5-0.2,0.5-0.5s-0.2-0.5-0.5-0.5h-0.9v-0.5c1.7-0.3,3.1-1.8,3.1-3.6v-1.4
		c0-0.1-0.1-0.3-0.2-0.4C15.5,10.2,15.2,10.1,15,10.3z M9.2,10.4L9.2,10.4L9.2,10.4L9.2,10.4L9.2,10.4z"/>
</g>
<g>
	<path d="M12.3,13.9c-1,0-1.8-0.8-1.8-1.8V9c0-1,0.8-1.8,1.8-1.8S14.1,8,14.1,9v3.2C14.1,13.2,13.3,13.9,12.3,13.9z M12.3,8.4
		c-0.3,0-0.6,0.2-0.6,0.6v3.2c0,0.3,0.2,0.6,0.6,0.6c0.3,0,0.6-0.2,0.6-0.6V9C12.9,8.7,12.6,8.4,12.3,8.4z"/>
</g>
</svg>
