<?xml version="1.0" encoding="UTF-8"?>
<svg width="24px" height="24px" viewBox="0 0 24 24" version="1.1" xmlns="http://www.w3.org/2000/svg" xmlns:xlink="http://www.w3.org/1999/xlink">
    <title>Micro Off</title>
    <g id="Icones_Outline" stroke="none" stroke-width="1" fill="none" fill-rule="evenodd">
        <g id="Micro-Off" stroke="#000000">
            <line x1="3" y1="21" x2="21" y2="4" id="Line" stroke-width="1.75" stroke-linecap="round"></line>
            <g id="noun_recording_1614610" transform="translate(5.000000, 2.000000)" fill-rule="nonzero">
                <g id="Group">
                    <path d="M6.56527519,0.849075391 C7.49027117,0.849075391 8.32847097,1.2251095 8.93550281,1.83214135 C9.54253466,2.4391732 9.91856877,3.27737299 9.91856877,4.20236897 L9.91856877,4.20236897 L9.91856877,10.2205384 C9.91856877,11.1455335 9.5425343,11.9837335 8.93550214,12.5907656 C8.32847037,13.1977974 7.49027087,13.5738319 6.56527519,13.5738319 C5.64027948,13.5738319 4.8020799,13.1977974 4.19504806,12.5907656 C3.58801587,11.9837334 3.21198134,11.1455335 3.21198134,10.2205384 L3.21198134,10.2205384 L3.21198134,4.20236897 C3.21198134,3.27737302 3.5880155,2.43917324 4.19504738,1.8321414 C4.8020793,1.22510952 5.64027918,0.849075391 6.56527519,0.849075391 Z" id="Path" stroke-width="1.5"></path>
                    <path d="M0.555659536,6.93784593 C0.263494091,6.93333516 -0.00456587154,7.20139238 -5.2430396e-05,7.49355783 L-5.2430396e-05,10.2290732 C-5.2430396e-05,13.673624 2.64524538,16.4924773 6.01816938,16.768711 L6.01816938,18.7006784 L3.82974614,18.7006784 C3.52758781,18.7006784 3.28264033,18.9456177 3.28264033,19.2477842 C3.28264033,19.5499508 3.52758781,19.79489 3.82974614,19.79489 L9.30080425,19.79489 C9.60296258,19.79489 9.84791006,19.5499508 9.84791006,19.2477842 C9.84791006,18.9456177 9.60296258,18.7012802 9.30080425,18.7006784 L7.112381,18.7006784 L7.112381,16.768711 C10.4853047,16.4924773 13.1305918,13.673624 13.1305918,10.2290732 L13.1305918,7.49355783 C13.1346209,7.20451636 12.8725107,6.93866123 12.5834391,6.93866123 C12.2943675,6.93866123 12.0322464,7.20451636 12.0363333,7.49355783 L12.0363333,10.2290732 C12.0363333,13.2695043 9.60570358,15.7001313 6.56527519,15.7001313 C3.52484407,15.7001313 1.09421682,13.2695043 1.09421682,10.2290732 L1.09421682,7.49355783 C1.09870309,7.20709323 0.842124138,6.94237335 0.555659536,6.93784593 Z" id="Path" stroke-width="0.5" fill="#000000"></path>
                </g>
            </g>
        </g>
    </g>
</svg>