<?xml version="1.0" encoding="utf-8"?>
<!-- Generator: Adobe Illustrator 24.3.0, SVG Export Plug-In . SVG Version: 6.00 Build 0)  -->
<svg version="1.1" id="Layer_1" xmlns="http://www.w3.org/2000/svg" xmlns:xlink="http://www.w3.org/1999/xlink" x="0px" y="0px"
	 viewBox="0 0 24 24" style="enable-background:new 0 0 24 24;" xml:space="preserve">
<g>
	<path d="M12,16.2c1.1,0,2.1-0.4,2.8-1.2c0.8-0.8,1.2-1.9,1.2-2.8V6c0-1.1-0.4-2.1-1.2-2.8C13.3,1.6,10.7,1.6,9,3C8.4,3.8,8,4.8,8,6
		v6c0,1.1,0.4,2.1,1.2,2.8C9.9,15.8,10.9,16.2,12,16.2z M9.3,6c0-0.7,0.3-1.3,0.8-1.9c0.5-0.5,1.2-0.8,1.9-0.8s1.3,0.3,1.9,0.8
		s0.8,1.1,0.8,1.9v6c0,0.7-0.3,1.3-0.8,1.9c-1.1,1.1-2.7,1.1-3.6,0c-0.5-0.5-0.9-1.1-0.9-1.9V6z"/>
	<path d="M18.7,8.8c-0.3-0.3-0.7-0.3-1.1,0c-0.1,0.1-0.3,0.3-0.3,0.5V12c0,3.1-2.4,5.5-5.5,5.5S6.5,15.1,6.5,12V9.2
		c0-0.4-0.3-0.7-0.7-0.7l0,0c-0.1,0-0.4,0.1-0.5,0.3c-0.1,0-0.1,0.3-0.1,0.4V12c0,3.5,2.7,6.4,6.2,6.8v1.7H9.2
		c-0.4,0-0.7,0.3-0.7,0.7c0,0.4,0.3,0.7,0.7,0.7h5.6c0.4,0,0.7-0.3,0.7-0.7c0-0.4-0.3-0.7-0.7-0.7h-2.1v-1.7
		c3.5-0.4,6.2-3.4,6.2-6.8V9.2C18.8,9.1,18.8,8.9,18.7,8.8z"/>
</g>
</svg>
