<?xml version="1.0" encoding="utf-8"?>
<!-- Generator: Adobe Illustrator 24.3.0, SVG Export Plug-In . SVG Version: 6.00 Build 0)  -->
<svg version="1.1" id="Layer_1" xmlns="http://www.w3.org/2000/svg" xmlns:xlink="http://www.w3.org/1999/xlink" x="0px" y="0px"
	 viewBox="0 0 24 24" style="enable-background:new 0 0 24 24;" xml:space="preserve">
<g>
	<path d="M12,16.1c1.1,0,2.1-0.4,2.8-1.2c0.8-0.8,1.2-1.9,1.2-2.8V6c0-1.1-0.4-2.1-1.2-2.8c-1.5-1.5-4.2-1.5-5.8,0
		C8.4,3.8,8,4.9,8,6v6.2c0,1.1,0.4,2.1,1.2,2.8C9.9,15.7,10.8,16.1,12,16.1z M9.4,6c0-0.7,0.3-1.3,0.8-1.9c0.5-0.5,1.1-0.8,1.9-0.8
		c0.7,0,1.3,0.3,1.9,0.8c0.5,0.5,0.8,1.1,0.8,1.9v6.2c0,0.7-0.3,1.3-0.8,1.9c-1.1,1.1-2.7,1.1-3.6,0c-0.5-0.5-0.8-1.1-0.8-1.9
		C9.4,12.1,9.4,6,9.4,6z"/>
	<path d="M18.6,8.8c-0.3-0.3-0.7-0.3-1.1,0c0,0.1-0.1,0.3-0.1,0.5v2.8c0,3.1-2.4,5.5-5.5,5.5s-5.5-2.4-5.5-5.5V9.3
		c0-0.4-0.3-0.7-0.7-0.7l0,0c-0.1-0.1-0.3,0-0.4,0.1C5.1,8.9,5.1,9,5.1,9.3v2.8c0,3.5,2.7,6.4,6.2,6.8v1.7h-2
		c-0.4,0-0.7,0.3-0.7,0.7c0,0.4,0.3,0.7,0.7,0.7h5.6c0.4,0,0.7-0.3,0.7-0.7c0-0.4-0.3-0.7-0.7-0.7h-2.1V19c3.5-0.4,6.2-3.4,6.2-6.8
		V9.3C18.9,9,18.9,9,18.6,8.8z"/>
</g>
<g>
	<path d="M5.5,21.9c-0.1,0-0.3,0-0.4-0.1c-0.3-0.3-0.4-0.7-0.3-1.1L17.7,2.6c0.3-0.3,0.7-0.4,1.1-0.3C19,2.6,19.1,3,19,3.4L6,21.6
		C5.9,21.8,5.6,21.9,5.5,21.9z"/>
</g>
</svg>
