<?xml version="1.0" encoding="UTF-8"?>
<svg width="24px" height="24px" viewBox="0 0 24 24" version="1.1" xmlns="http://www.w3.org/2000/svg" xmlns:xlink="http://www.w3.org/1999/xlink">
    <title>Full Screen Copy</title>
    <g id="Icones" stroke="none" stroke-width="1" fill="none" fill-rule="evenodd">
        <g id="Full-Screen-Copy" fill="#000000" fill-rule="nonzero">
            <g id="noun_Full-Screen_533148" transform="translate(2.000000, 3.000000)">
                <path d="M19,0.883534137 L19,7.1124498 C19,7.59839357 18.6024096,7.99598394 18.1164659,7.99598394 C17.6305221,7.99598394 17.2329317,7.59839357 17.2329317,7.1124498 L17.2329317,3.00401606 L11.2248996,8.87951807 C11.0481928,9.0562249 10.8273092,9.14457831 10.6064257,9.14457831 C10.3855422,9.14457831 10.1646586,9.0562249 9.98795181,8.87951807 C9.63453815,8.52610442 9.63453815,7.95180723 9.98795181,7.64257028 L15.9518072,1.76706827 L11.8875502,1.76706827 C11.4016064,1.76706827 11.0040161,1.36947791 11.0040161,0.883534137 C11.0040161,0.397590361 11.4016064,0 11.8875502,0 L18.1164659,0 C18.248996,0 18.3373494,0.0441767068 18.4698795,0.0883534137 L18.5140562,0.0883534137 C18.5582329,0.13253012 18.6024096,0.13253012 18.6907631,0.176706827 L18.7791165,0.265060241 L18.8232932,0.309236948 C18.8232932,0.353413655 18.8674699,0.353413655 18.8674699,0.397590361 C18.8674699,0.441767068 18.9116466,0.441767068 18.9116466,0.485943775 C18.9116466,0.530120482 18.9558233,0.530120482 18.9558233,0.574297189 C18.9558233,0.618473896 18.9558233,0.618473896 19,0.662650602 C19,0.706827309 19,0.706827309 19.0441767,0.751004016 L19.0441767,0.883534137 C19,0.83935743 19,0.883534137 19,0.883534137 L19,0.883534137 Z M9.18875502,9.81124498 C9.01204819,9.63453815 8.79116466,9.54618474 8.57028112,9.54618474 C8.34939759,9.54618474 8.12851406,9.63453815 7.95180723,9.81124498 L1.76706827,15.8634538 L1.76706827,11.7108434 C1.76706827,11.2248996 1.36947791,10.8273092 0.883534137,10.8273092 C0.397590361,10.8273092 -2.51354493e-13,11.2248996 -2.51354493e-13,11.7108434 L-2.51354493e-13,18.1164659 C-2.51354493e-13,18.1606426 -2.51354493e-13,18.1606426 0.0441767068,18.2048193 C0.0441767068,18.248996 0.0441767068,18.248996 0.0883534137,18.2931727 C0.0883534137,18.3373494 0.13253012,18.3373494 0.13253012,18.3815261 C0.13253012,18.4257028 0.176706827,18.4257028 0.176706827,18.4698795 C0.176706827,18.5140562 0.220883534,18.5140562 0.220883534,18.5582329 L0.265060241,18.6024096 L0.353413655,18.6907631 C0.397590361,18.7349398 0.441767068,18.7791165 0.530120482,18.7791165 L0.574297189,18.7791165 C0.662650602,18.8232932 0.795180723,18.8674699 0.927710843,18.8674699 L7.15662651,18.8674699 C7.64257028,18.8674699 8.04016064,18.4698795 8.04016064,17.9839357 C8.04016064,17.497992 7.64257028,17.1004016 7.15662651,17.1004016 L3.04819277,17.1004016 L9.18875502,11.0923695 C9.54216867,10.7389558 9.54216867,10.1646586 9.18875502,9.81124498 L9.18875502,9.81124498 Z" id="Shape"></path>
            </g>
        </g>
    </g>
</svg>