<?xml version="1.0" encoding="utf-8"?>
<!-- Generator: Adobe Illustrator 24.3.0, SVG Export Plug-In . SVG Version: 6.00 Build 0)  -->
<svg version="1.1" id="Layer_1" xmlns="http://www.w3.org/2000/svg" xmlns:xlink="http://www.w3.org/1999/xlink" x="0px" y="0px"
	 viewBox="0 0 24 24" style="enable-background:new 0 0 24 24;" xml:space="preserve">
<path d="M19.7,16.4V7.6C21,7.4,22,6.2,22,4.9C22,3.3,20.7,2,19.1,2c-1.4,0-2.5,1-2.8,2.3H7.6C7.4,3,6.2,2,4.9,2C3.3,2,2,3.3,2,4.9
	c0,1.4,1,2.5,2.3,2.8v8.7C3,16.6,2,17.8,2,19.1C2,20.7,3.3,22,4.9,22c1.4,0,2.5-1,2.8-2.2h8.7c0.3,1.3,1.4,2.2,2.8,2.2
	c1.6,0,2.9-1.3,2.9-2.9C22,17.8,21,16.6,19.7,16.4z M18.5,11v2.9l-4.7,4.7H11L18.5,11z M5.5,13v-2.9l4.7-4.7H13L5.5,13z M19.1,17.5
	c0.9,0,1.6,0.7,1.6,1.6c0,0.9-0.7,1.6-1.6,1.6c-0.9,0-1.6-0.7-1.6-1.6C17.5,18.2,18.2,17.5,19.1,17.5z M4.9,17.5
	c0.9,0,1.6,0.7,1.6,1.6c0,0.9-0.7,1.6-1.6,1.6s-1.6-0.7-1.6-1.6C3.2,18.2,3.9,17.5,4.9,17.5z M5.8,16.8C5.8,16.8,5.8,16.8,5.8,16.8
	L5.8,16.8L5.8,16.8z M6.3,17C6.3,17,6.3,17,6.3,17L6.3,17L6.3,17z M16.8,5.9L16.8,5.9L16.8,5.9L16.8,5.9z M16.7,6.4L6.4,16.7
	c0,0-0.1-0.1-0.1-0.1l-0.1,0c0,0-0.1,0-0.2-0.1l-0.3-0.1c-0.1,0-0.1,0-0.2-0.1v-1.6l9.3-9.3h1.6c0,0.1,0,0.2,0.1,0.2
	c0,0,0,0.1,0,0.1c0,0,0,0.1,0,0.1l0,0.1c0,0.1,0,0.1,0.1,0.2l0,0.1C16.7,6.3,16.7,6.3,16.7,6.4L16.7,6.4z M18.2,7.2L18.2,7.2
	L18.2,7.2L18.2,7.2z M7.1,17.9L7.1,17.9L7.1,17.9C7.1,17.9,7.1,17.9,7.1,17.9z M7.2,17.6L17.6,7.3c0,0,0.1,0.1,0.1,0.1l0.1,0
	c0,0,0.1,0,0.2,0.1l0.3,0.1c0.1,0,0.1,0,0.2,0.1v1.6c0,0,0,0,0,0l-9.3,9.3H7.6c0-0.1,0-0.2-0.1-0.2l0-0.1c0,0,0-0.1,0-0.1l0-0.1
	c0-0.1,0-0.1-0.1-0.1l0-0.1C7.3,17.7,7.3,17.7,7.2,17.6L7.2,17.6z M19.1,6.5c-0.4,0-0.8-0.2-1.1-0.4L18,6c0,0-0.1-0.1-0.1-0.1
	c-0.3-0.3-0.4-0.7-0.4-1.1c0-0.9,0.7-1.6,1.6-1.6c0.9,0,1.6,0.7,1.6,1.6C20.8,5.8,20,6.5,19.1,6.5z M16.7,5.7L16.7,5.7
	C16.7,5.7,16.7,5.7,16.7,5.7L16.7,5.7z M4.9,6.5c-0.9,0-1.6-0.7-1.6-1.6c0-0.9,0.7-1.6,1.6-1.6S6.5,4,6.5,4.9
	C6.5,5.8,5.8,6.5,4.9,6.5z M6.3,7L6.3,7L6.3,7L6.3,7z M6.1,7.1L6.1,7.1L6.1,7.1L6.1,7.1z M5.9,7.2L5.9,7.2L5.9,7.2L5.9,7.2z
	 M5.7,7.3L5.7,7.3L5.7,7.3C5.7,7.3,5.7,7.3,5.7,7.3z M5.3,7.4L5.3,7.4L5.3,7.4L5.3,7.4z M5.5,8.4V7.6c0.1,0,0.2,0,0.2-0.1l0.1,0
	c0,0,0.1,0,0.1,0l0.1,0c0.1,0,0.1,0,0.1-0.1l0.1,0c0,0,0.1,0,0.1-0.1l0.1-0.1c0,0,0.1-0.1,0.1-0.1l0.1,0C6.7,7,6.8,6.9,6.9,6.9
	C6.9,6.8,7,6.7,7,6.7l0.2-0.3c0,0,0.1-0.1,0.1-0.1l0-0.1c0,0,0-0.1,0.1-0.2c0,0,0-0.1,0-0.1l0.1-0.2c0-0.1,0-0.1,0.1-0.2h0.8
	L5.5,8.4z M6.9,6.4L6.9,6.4L6.9,6.4C6.9,6.4,6.9,6.4,6.9,6.4z M7.3,18.3L7.3,18.3C7.3,18.3,7.3,18.3,7.3,18.3L7.3,18.3z M17.7,17
	L17.7,17L17.7,17L17.7,17z M18.3,16.7L18.3,16.7L18.3,16.7C18.3,16.7,18.3,16.7,18.3,16.7z M18.5,15.6v0.8c-0.1,0-0.2,0-0.2,0.1
	c0,0-0.1,0-0.1,0c0,0-0.1,0-0.1,0l-0.1,0c-0.1,0-0.1,0-0.1,0.1l-0.1,0c0,0-0.1,0.1-0.2,0.1l-0.1,0c0,0-0.1,0.1-0.1,0.1l-0.1,0
	c-0.1,0.1-0.1,0.1-0.2,0.2c-0.1,0.1-0.1,0.1-0.2,0.2l-0.2,0.2l0.2,0.2l-0.3-0.1c0,0-0.1,0.1-0.1,0.1l0,0.1c0,0-0.1,0.1-0.1,0.2
	l-0.1,0.3c0,0.1,0,0.1-0.1,0.2h-0.8L18.5,15.6z M17.1,17.6L17.1,17.6L17.1,17.6L17.1,17.6z M16.8,18.2L16.8,18.2
	C16.8,18.2,16.8,18.2,16.8,18.2L16.8,18.2z"/>
</svg>
