/* XPM */
static char * jami_xpm[] = {
"32 32 357 2",
"  	c None",
". 	c #2B5B92",
"+ 	c #202654",
"@ 	c #262F5E",
"# 	c #252C5A",
"$ 	c #252F5D",
"% 	c #2865A0",
"& 	c #2767A2",
"* 	c #2569A5",
"= 	c #26305F",
"- 	c #293868",
"; 	c #2B4070",
"> 	c #2B3D6D",
", 	c #2B3E6E",
"' 	c #256BA6",
") 	c #2868A3",
"! 	c #2171AF",
"~ 	c #2073B2",
"{ 	c #1C77B7",
"] 	c #197ABA",
"^ 	c #284172",
"/ 	c #2C4172",
"( 	c #2D4879",
"_ 	c #2E4C7E",
": 	c #2E4B7D",
"< 	c #2E4E7F",
"[ 	c #2E4C7D",
"} 	c #2C5183",
"| 	c #1A7AB8",
"1 	c #2074B0",
"2 	c #256CA8",
"3 	c #1A79B9",
"4 	c #177CBC",
"5 	c #147EBF",
"6 	c #127FC1",
"7 	c #1080C2",
"8 	c #265A90",
"9 	c #2D497A",
"0 	c #2E4779",
"a 	c #2D4172",
"b 	c #2D5487",
"c 	c #2D5386",
"d 	c #27649A",
"e 	c #0D85C3",
"f 	c #1380BD",
"g 	c #1A7AB7",
"h 	c #2173AF",
"i 	c #266CA7",
"j 	c #117FC2",
"k 	c #1080C3",
"l 	c #0F80C3",
"m 	c #0F81C4",
"n 	c #0E81C4",
"o 	c #1F6EAB",
"p 	c #2E4B7C",
"q 	c #2E4678",
"r 	c #2C4070",
"s 	c #2C4A7C",
"t 	c #2D568A",
"u 	c #1F79B3",
"v 	c #0A8ECC",
"w 	c #0B8AC8",
"x 	c #0E85C3",
"y 	c #147FBD",
"z 	c #1B79B6",
"A 	c #2074B1",
"B 	c #0E81C5",
"C 	c #147DBE",
"D 	c #2D4577",
"E 	c #2C3E6F",
"F 	c #2B4576",
"G 	c #2D568B",
"H 	c #138FCC",
"I 	c #0A94D3",
"J 	c #0A91CF",
"K 	c #0A8DCB",
"L 	c #0B89C7",
"M 	c #0E84C2",
"N 	c #1180C2",
"O 	c #137EC0",
"P 	c #157DBE",
"Q 	c #275D93",
"R 	c #293B6A",
"S 	c #2B4E81",
"T 	c #2C4F82",
"U 	c #26679C",
"V 	c #0B9AD9",
"W 	c #0B98D7",
"X 	c #0B96D5",
"Y 	c #0A94D2",
"Z 	c #0B8DCB",
"` 	c #1E76B5",
" .	c #2172B0",
"..	c #2368A2",
"+.	c #273261",
"@.	c #294374",
"#.	c #2A4577",
"$.	c #1B86C1",
"%.	c #0D9BDB",
"&.	c #0C9BDB",
"*.	c #0C99D9",
"=.	c #0B96D4",
"-.	c #1C77B6",
";.	c #1F73B1",
">.	c #2075B2",
",.	c #2079B6",
"'.	c #207EBA",
").	c #2080BC",
"!.	c #1D85C1",
"~.	c #1980B9",
"{.	c #1980BA",
"].	c #187FB8",
"^.	c #187BB4",
"/.	c #1973AD",
"(.	c #2069A2",
"_.	c #275D94",
":.	c #26669C",
"<.	c #0F9CDC",
"[.	c #0E9CDC",
"}.	c #0D9CDC",
"|.	c #0C9BDA",
"1.	c #0B99D9",
"2.	c #0A93D1",
"3.	c #1092D0",
"4.	c #0E98D8",
"5.	c #0E9DDD",
"6.	c #109EDE",
"7.	c #0F9DDD",
"8.	c #0B99D8",
"9.	c #0A95D3",
"0.	c #0E85C2",
"a.	c #1C78B5",
"b.	c #2769A4",
"c.	c #1D8ECC",
"d.	c #0F9EDE",
"e.	c #158AC9",
"f.	c #1C78B9",
"g.	c #1181BF",
"h.	c #0B8BC9",
"i.	c #0A93D2",
"j.	c #0B98D8",
"k.	c #1083C1",
"l.	c #1E76B3",
"m.	c #2676B0",
"n.	c #119EDD",
"o.	c #0E9BDB",
"p.	c #1C78B7",
"q.	c #1D77B7",
"r.	c #2074B2",
"s.	c #1F75B2",
"t.	c #1083C0",
"u.	c #0B8CCA",
"v.	c #1C94D1",
"w.	c #168ECD",
"x.	c #2073B1",
"y.	c #2669A4",
"z.	c #2769A5",
"A.	c #1D77B4",
"B.	c #0B97D6",
"C.	c #137FBD",
"D.	c #1F85C1",
"E.	c #109DDD",
"F.	c #1C7BB9",
"G.	c #1C78B8",
"H.	c #2072B1",
"I.	c #2768A3",
"J.	c #2C598E",
"K.	c #266BA7",
"L.	c #1B79B7",
"M.	c #0D86C4",
"N.	c #0A8FCD",
"O.	c #0A96D4",
"P.	c #0C9ADA",
"Q.	c #0A92D0",
"R.	c #157FBD",
"S.	c #1196D4",
"T.	c #178DCB",
"U.	c #1D77B6",
"V.	c #2C588C",
"W.	c #246EAA",
"X.	c #197BB9",
"Y.	c #0C87C5",
"Z.	c #0A90CE",
"`.	c #0C9AD9",
" +	c #149EDD",
".+	c #1697D4",
"++	c #1790CD",
"@+	c #1486C3",
"#+	c #1285C3",
"$+	c #0E9ADA",
"%+	c #2866A1",
"&+	c #2D578B",
"*+	c #2370AC",
"=+	c #177DBA",
"-+	c #1095D4",
";+	c #198AC6",
">+	c #207EB7",
",+	c #2674AA",
"'+	c #2A6FA5",
")+	c #2D679A",
"!+	c #2D598D",
"~+	c #2D5488",
"{+	c #2C5A8F",
"]+	c #2A6097",
"^+	c #1A7CB5",
"/+	c #24679E",
"(+	c #2070AB",
"_+	c #1B78B7",
":+	c #28669F",
"<+	c #2172AF",
"[+	c #147FBC",
"}+	c #157FBB",
"|+	c #216EA5",
"1+	c #285689",
"2+	c #2C4272",
"3+	c #2C4171",
"4+	c #2B5C91",
"5+	c #29639A",
"6+	c #27679F",
"7+	c #256BA4",
"8+	c #236EA9",
"9+	c #2172AD",
"0+	c #1F75B1",
"a+	c #187DBA",
"b+	c #1380BE",
"c+	c #0F8ECA",
"d+	c #273B6A",
"e+	c #2A3969",
"f+	c #2C4071",
"g+	c #294E81",
"h+	c #265E95",
"i+	c #2469A5",
"j+	c #28659E",
"k+	c #2D5689",
"l+	c #236FAA",
"m+	c #285D93",
"n+	c #2D4D7F",
"o+	c #2A5B90",
"p+	c #1C79B5",
"q+	c #197BB8",
"r+	c #167EBB",
"s+	c #1082C0",
"t+	c #0F85C2",
"u+	c #0D87C4",
"v+	c #1683C1",
"w+	c #225E91",
"x+	c #2A3A6A",
"y+	c #2A3C6D",
"z+	c #2D4A7C",
"A+	c #2C5488",
"B+	c #2D5588",
"C+	c #2E568B",
"D+	c #1B7AB5",
"E+	c #0B93D1",
"F+	c #1C71AA",
"G+	c #2B3F6F",
"H+	c #2C4374",
"I+	c #2D4B7E",
"J+	c #2C5C94",
"K+	c #2B5C95",
"L+	c #29639B",
"M+	c #0E90CE",
"N+	c #0B94D2",
"O+	c #0C97D5",
"P+	c #0C98D6",
"Q+	c #0C99D7",
"R+	c #1195D3",
"S+	c #266DA8",
"T+	c #256CA7",
"U+	c #2B4B7D",
"V+	c #2D4576",
"W+	c #2D4778",
"X+	c #2D487A",
"Y+	c #2E4A7C",
"Z+	c #2C5B92",
"`+	c #2A6099",
" @	c #2A5D95",
".@	c #2A5F98",
"+@	c #2A609A",
"@@	c #2179B4",
"#@	c #0D9AD8",
"$@	c #0D9BD9",
"%@	c #0E9BD9",
"&@	c #0E9CDA",
"*@	c #0E9CDB",
"=@	c #1691CE",
"-@	c #2B588D",
";@	c #2C568B",
">@	c #2A5F99",
",@	c #2D4678",
"'@	c #2B4475",
")@	c #294576",
"!@	c #274779",
"~@	c #264F83",
"{@	c #2275B1",
"]@	c #1B8AC5",
"^@	c #0F9DDB",
"/@	c #0F9DDC",
"(@	c #1B88C3",
"_@	c #2E4D7F",
":@	c #2E4A7D",
"<@	c #2E5488",
"[@	c #2E5083",
"}@	c #2D4475",
"|@	c #2A3D6D",
"1@	c #1B72AC",
"2@	c #1F75B4",
"3@	c #1496D4",
"4@	c #109EDD",
"5@	c #1E81BA",
"6@	c #2E4A7B",
"7@	c #2E487A",
"8@	c #2E5487",
"9@	c #1D74B1",
"0@	c #117FC1",
"a@	c #187BBB",
"b@	c #1F74B2",
"c@	c #2373AF",
"d@	c #119CDC",
"e@	c #1F7DB6",
"f@	c #2E4778",
"g@	c #2D4375",
"h@	c #2D4173",
"i@	c #2E4F81",
"j@	c #2E5285",
"k@	c #2E5589",
"l@	c #1B77B5",
"m@	c #127FC0",
"n@	c #197ABB",
"o@	c #1F7CB8",
"p@	c #1C81BB",
"q@	c #2B3C6C",
"r@	c #2A3767",
"s@	c #2D4374",
"t@	c #2E497A",
"u@	c #2A5A90",
"v@	c #187ABA",
"w@	c #0F80C4",
"x@	c #1A7ABA",
"y@	c #1C83C0",
"z@	c #0B97D5",
"A@	c #1489C5",
"B@	c #245081",
"C@	c #272F5E",
"D@	c #252D5C",
"E@	c #26629B",
"F@	c #137EBF",
"G@	c #2270AE",
"H@	c #1574AC",
"I@	c #1B78B8",
"J@	c #147DBF",
"K@	c #0D87C5",
"L@	c #1182BF",
"M@	c #167DBB",
"N@	c #1E77B3",
"O@	c #236FAB",
"P@	c #2669A3",
"                                                                ",
"                  . + @                 # $ %                   ",
"                & * = - ;             > > , ' )                 ",
"            ! ~ { ] ^ / ( _ :     < [ [ [ } | 1 2 )             ",
"          3 4 5 6 7 8 9 _ : 0 a b c c c c d e f g h i           ",
"        6 j k l m n o _ p q r s t t t t t u v w x y z A         ",
"        m m B B m m C _ D E F G G G G G G H I J K L M f         ",
"          m l k N O P Q > R S T T T T T U V W X Y J Z           ",
"          6 5 4 3 `  ...+.@.#.#.#.#.#.#.$.%.&.*.W =.Y           ",
"          -.;.>.,.'.).!.~.{.].^./.(._.:.<.[.}.%.|.1.W           ",
"        2.3.4.}.5.6.7.[.%.8.9.v 0.a.b.c.d.7.5.[.}.&.e.f.        ",
"    g.h.i.W &.}.7.6.7.[.&.j.I Z k.l.m.n.d.6.d.7.5.o.p.f.q.r.    ",
"  s.t.u.I W &.[.7.6.7.}.&.W Y u.g.1 v.[.5.7.d.6.d.w.q.f.q.x.y.  ",
"z.A.M v 9.8.&.[.7.6.7.}.|.B.2.w C.D.o.%.}.[.5.7.E.F.G.G.q.H.I.J.",
"K.L.M.N.O.*.%.[.7.6.5.}.P.B.Q.L R.S.W *.&.}.}.[.T.` G.G.U. .& V.",
"W.X.Y.Z.X `.}.5.d.d.7.n. +.+++@+#+J I X W `.&.$+>.U.G.G.U. .%+&+",
"*+=+L J X -+;+>+,+'+)+!+~+&+{+]+f L K Q.9.X W ^+/+(+_+f.U.! :+t ",
"<+[+}+|+1+2+3+3+2+4+5+6+7+8+9+0+a+b+e w v Q.c+d+e+3+f+g+h+i+j+k+",
"l+m+n+n+n+n+n+n+n+o+p+q+r+f s+t+u+v+g b+M.w w+x+y+z+n+n+n+n+A+B+",
"C+C+C+C+C+C+C+C+C+C+D+L h.Z v Z.Q.E+,.A q+F+G+/ H+I+C+C+C+C+C+  ",
"    J+K+K+K+K+K+K+K+L+M+N+=.=.O+P+Q+R+S+T+U+V+W+X+Y+Z+K+K+J+    ",
"        `+ @.@+@+@+@+@@@#@$@%@&@&@*@*@=@-@9 Y+[ _ _ ;@>@        ",
"          _ ,@'@)@!@~@{@]@^@^@/@/@/@/@7.(@_@_ _ _ : :@          ",
"          <@[@: }@|@1@2@T+3@E.4@4@6.6.6.6.5@: Y+6@7@0           ",
"          G t 8@[@9@0@a@b@c@d@7.7.7.7.5.5.[.e@f@V+g@h@          ",
"        i@j@k@J.l@m l m@n@x.o@[.[.}.}.}.%.&.&.p@H+q@e+r@        ",
"        s@t@u@v@w@B m l O x@! y@&.P.`.1.8.W B.z@A@B@C@D@        ",
"          E@-.P 7 m B m k F@3 G@W X O.9.Y 2.J Z.v u.H@          ",
"            ! I@J@7 m B m k 5     J v u.w L K@x t.L@            ",
"                3 F@k m B             b+M@q+a.N@                ",
"                  a@O l                 O@y.P@                  ",
"                                                                "};
